<?xml version="1.0" encoding="UTF-8" standalone="no"?>
<!-- Created with Inkscape (http://www.inkscape.org/) -->

<svg
   xmlns:ns0="http://www.iki.fi/pav/software/textext/"
   xmlns:dc="http://purl.org/dc/elements/1.1/"
   xmlns:cc="http://creativecommons.org/ns#"
   xmlns:rdf="http://www.w3.org/1999/02/22-rdf-syntax-ns#"
   xmlns:svg="http://www.w3.org/2000/svg"
   xmlns="http://www.w3.org/2000/svg"
   xmlns:sodipodi="http://sodipodi.sourceforge.net/DTD/sodipodi-0.dtd"
   xmlns:inkscape="http://www.inkscape.org/namespaces/inkscape"
   width="223.66154mm"
   height="169.64546mm"
   viewBox="0 0 223.66154 169.64546"
   version="1.1"
   id="svg8"
   sodipodi:docname="SK_HP_ConCorrientes.svg"
   inkscape:version="0.92.3 (2405546, 2018-03-11)">
  <sodipodi:namedview
     id="base"
     pagecolor="#ffffff"
     bordercolor="#666666"
     borderopacity="1.0"
     inkscape:pageopacity="0.0"
     inkscape:pageshadow="2"
     inkscape:zoom="0.7"
     inkscape:cx="259.20972"
     inkscape:cy="303.92113"
     inkscape:document-units="mm"
     inkscape:current-layer="g5215"
     showgrid="false"
     inkscape:window-width="1920"
     inkscape:window-height="1001"
     inkscape:window-x="-9"
     inkscape:window-y="-9"
     inkscape:window-maximized="1"
     fit-margin-top="0"
     fit-margin-left="0"
     fit-margin-right="0"
     fit-margin-bottom="0" />
  <defs
     id="defs2">
    <inkscape:path-effect
       effect="spiro"
       id="path-effect6204"
       is_visible="true" />
    <marker
       inkscape:stockid="DotM"
       orient="auto"
       refY="0"
       refX="0"
       id="marker5766"
       style="overflow:visible"
       inkscape:isstock="true">
      <path
         id="path5764"
         d="m -2.5,-1 c 0,2.76 -2.24,5 -5,5 -2.76,0 -5,-2.24 -5,-5 0,-2.76 2.24,-5 5,-5 2.76,0 5,2.24 5,5 z"
         style="fill:#000000;fill-opacity:1;fill-rule:evenodd;stroke:#000000;stroke-width:1.00000003pt;stroke-opacity:1"
         transform="matrix(0.4,0,0,0.4,2.96,0.4)"
         inkscape:connector-curvature="0" />
    </marker>
    <inkscape:path-effect
       effect="spiro"
       id="path-effect5762"
       is_visible="true" />
    <marker
       inkscape:stockid="DotM"
       orient="auto"
       refY="0"
       refX="0"
       id="marker5740"
       style="overflow:visible"
       inkscape:isstock="true">
      <path
         id="path5738"
         d="m -2.5,-1 c 0,2.76 -2.24,5 -5,5 -2.76,0 -5,-2.24 -5,-5 0,-2.76 2.24,-5 5,-5 2.76,0 5,2.24 5,5 z"
         style="fill:#000000;fill-opacity:1;fill-rule:evenodd;stroke:#000000;stroke-width:1.00000003pt;stroke-opacity:1"
         transform="matrix(0.4,0,0,0.4,2.96,0.4)"
         inkscape:connector-curvature="0" />
    </marker>
    <inkscape:path-effect
       effect="spiro"
       id="path-effect5736"
       is_visible="true" />
    <inkscape:path-effect
       effect="spiro"
       id="path-effect5732"
       is_visible="true" />
    <marker
       inkscape:stockid="DotM"
       orient="auto"
       refY="0"
       refX="0"
       id="marker5634"
       style="overflow:visible"
       inkscape:isstock="true">
      <path
         id="path5632"
         d="m -2.5,-1 c 0,2.76 -2.24,5 -5,5 -2.76,0 -5,-2.24 -5,-5 0,-2.76 2.24,-5 5,-5 2.76,0 5,2.24 5,5 z"
         style="fill:#000000;fill-opacity:1;fill-rule:evenodd;stroke:#000000;stroke-width:1.00000003pt;stroke-opacity:1"
         transform="matrix(0.4,0,0,0.4,2.96,0.4)"
         inkscape:connector-curvature="0" />
    </marker>
    <inkscape:path-effect
       effect="spiro"
       id="path-effect5630"
       is_visible="true" />
    <inkscape:path-effect
       effect="spiro"
       id="path-effect5626"
       is_visible="true" />
    <inkscape:path-effect
       effect="spiro"
       id="path-effect5622"
       is_visible="true" />
    <marker
       inkscape:stockid="DotM"
       orient="auto"
       refY="0"
       refX="0"
       id="DotM"
       style="overflow:visible"
       inkscape:isstock="true">
      <path
         id="path5408"
         d="m -2.5,-1 c 0,2.76 -2.24,5 -5,5 -2.76,0 -5,-2.24 -5,-5 0,-2.76 2.24,-5 5,-5 2.76,0 5,2.24 5,5 z"
         style="fill:#000000;fill-opacity:1;fill-rule:evenodd;stroke:#000000;stroke-width:1.00000003pt;stroke-opacity:1"
         transform="matrix(0.4,0,0,0.4,2.96,0.4)"
         inkscape:connector-curvature="0" />
    </marker>
    <inkscape:path-effect
       effect="spiro"
       id="path-effect5342"
       is_visible="true" />
    <inkscape:path-effect
       effect="spiro"
       id="path-effect5338"
       is_visible="true" />
    <marker
       id="arrowCurrentStart"
       orient="auto"
       refX="0"
       refY="0"
       style="overflow:visible"
       inkscape:stockid="arrowCurrentStart">
      <path
         d="M 0,0 5,-5 -12.5,0 5,5 Z"
         style="fill:#ff0000;fill-rule:evenodd;stroke:#ff0000;stroke-width:1"
         transform="matrix(0.25,0,0,0.25,1.823125,0)"
         id="path1047"
         inkscape:connector-curvature="0" />
    </marker>
    <marker
       id="arrowCurrentEnd"
       orient="auto"
       refX="0"
       refY="0"
       style="overflow:visible"
       inkscape:stockid="arrowCurrentEnd">
      <path
         d="M 0,0 5,-5 -12.5,0 5,5 Z"
         style="fill:#ff0000;fill-rule:evenodd;stroke:#ff0000;stroke-width:1"
         transform="matrix(-0.25,0,0,-0.25,-1.823125,0)"
         id="path1050"
         inkscape:connector-curvature="0" />
    </marker>
  </defs>
  <metadata
     id="metadata5">
    <rdf:RDF>
      <cc:Work
         rdf:about="">
        <dc:format>image/svg+xml</dc:format>
        <dc:type
           rdf:resource="http://purl.org/dc/dcmitype/StillImage" />
        <dc:title></dc:title>
      </cc:Work>
    </rdf:RDF>
  </metadata>
  <g
     id="layer1"
     inkscape:groupmode="layer"
     inkscape:label="Layer 1"
     transform="translate(87.775325,-29.332352)" />
  <g
     id="g4538"
     inkscape:label="OpAmp"
     transform="translate(87.775325,-29.332352)"
     inkscape:export-xdpi="600"
     inkscape:export-ydpi="600">
    <g
       id="g4536"
       inkscape:label="OpAmp">
      <path
         id="path4522"
         inkscape:label="none"
         style="fill:none;stroke:#000000;stroke-width:1;stroke-linecap:round;stroke-linejoin:round;stroke-dasharray:none"
         d="M 105,90 70,110 V 70 l 35,20"
         inkscape:connector-curvature="0" />
      <path
         id="path4524"
         inkscape:label="none"
         style="fill:none;stroke:#000000;stroke-width:1;stroke-linecap:round;stroke-linejoin:round;stroke-dasharray:none"
         d="M 70,100 H 62.5"
         inkscape:connector-curvature="0" />
      <path
         id="path4526"
         inkscape:label="none"
         style="fill:none;stroke:#000000;stroke-width:1;stroke-linecap:round;stroke-linejoin:round;stroke-dasharray:none"
         d="M 70,80 H 62.5"
         inkscape:connector-curvature="0" />
      <path
         id="path4528"
         inkscape:label="none"
         style="fill:none;stroke:#000000;stroke-width:1;stroke-linecap:round;stroke-linejoin:round;stroke-dasharray:none"
         d="m 105,90 h 7.5"
         inkscape:connector-curvature="0" />
      <path
         id="path4530"
         inkscape:label="none"
         style="fill:none;stroke:#000000;stroke-width:0.69999999;stroke-linecap:round;stroke-linejoin:round;stroke-dasharray:none"
         d="M 76,100 H 73"
         inkscape:connector-curvature="0" />
      <path
         id="path4532"
         inkscape:label="none"
         style="fill:none;stroke:#000000;stroke-width:0.69999999;stroke-linecap:round;stroke-linejoin:round;stroke-dasharray:none"
         d="M 76,80 H 73"
         inkscape:connector-curvature="0" />
      <path
         id="path4534"
         inkscape:label="none"
         style="fill:none;stroke:#000000;stroke-width:0.69999999;stroke-linecap:round;stroke-linejoin:round;stroke-dasharray:none"
         d="m 74.5,78.5 v 3"
         inkscape:connector-curvature="0" />
    </g>
  </g>
  <g
     id="g4803"
     inkscape:label="Resistor"
     transform="rotate(-90,127.476,97.669402)"
     inkscape:export-xdpi="600"
     inkscape:export-ydpi="600">
    <path
       style="fill:none;stroke:#000000;stroke-width:1;stroke-linecap:butt;stroke-linejoin:miter;stroke-miterlimit:4;stroke-dasharray:none;stroke-opacity:1"
       d="M 174.47776,79.576485 V 120.46872"
       id="path5620"
       inkscape:connector-curvature="0"
       inkscape:path-effect="#path-effect5622"
       inkscape:original-d="M 174.47776,79.576485 V 120.46872" />
    <path
       style="fill:none;stroke:#000000;stroke-width:1;stroke-linecap:butt;stroke-linejoin:miter;stroke-miterlimit:4;stroke-dasharray:none;stroke-opacity:1;marker-start:url(#marker5634)"
       d="m 164.49427,170.46872 h 47.54458"
       id="path5624"
       inkscape:connector-curvature="0"
       inkscape:path-effect="#path-effect5626"
       inkscape:original-d="m 164.49427,170.46872 h 47.54458" />
    <path
       style="fill:none;stroke:#000000;stroke-width:1;stroke-linecap:butt;stroke-linejoin:miter;stroke-miterlimit:4;stroke-dasharray:none;stroke-opacity:1"
       d="m 211.5172,129.86021 v 40.36171"
       id="path5628"
       inkscape:connector-curvature="0"
       inkscape:path-effect="#path-effect5630"
       inkscape:original-d="m 211.5172,129.86021 v 40.36171" />
    <path
       style="fill:none;stroke:#000000;stroke-width:1;stroke-linecap:butt;stroke-linejoin:miter;stroke-miterlimit:4;stroke-dasharray:none;stroke-opacity:1;marker-start:url(#marker5740)"
       d="m 174.47776,29.576484 h 37.54083"
       id="path5730"
       inkscape:connector-curvature="0"
       inkscape:path-effect="#path-effect5732"
       inkscape:original-d="m 174.47776,29.576484 h 37.54083" />
    <path
       style="fill:none;stroke:#000000;stroke-width:1;stroke-linecap:butt;stroke-linejoin:miter;stroke-miterlimit:4;stroke-dasharray:none;stroke-opacity:1"
       d="M 211.5172,79.860208 V 29.504518"
       id="path5734"
       inkscape:connector-curvature="0"
       inkscape:path-effect="#path-effect5736"
       inkscape:original-d="M 211.5172,79.860208 V 29.504518" />
    <path
       style="fill:none;stroke:#000000;stroke-width:1;stroke-linecap:butt;stroke-linejoin:miter;stroke-miterlimit:4;stroke-dasharray:none;stroke-opacity:1;marker-end:url(#marker5766)"
       d="m 120,89.999998 h 54.50341"
       id="path5760"
       inkscape:connector-curvature="0"
       inkscape:path-effect="#path-effect5762"
       inkscape:original-d="m 120,89.999998 h 54.50341" />
  </g>
  <g
     inkscape:label="Resistor"
     id="g4901"
     transform="rotate(-90,142.71037,82.435042)"
     inkscape:export-xdpi="600"
     inkscape:export-ydpi="600">
    <path
       style="fill:none;stroke:#000000;stroke-width:1;stroke-linecap:butt;stroke-linejoin:miter;stroke-miterlimit:4;stroke-dasharray:none;stroke-opacity:1"
       d="M 164.47776,140 H 120"
       id="path5336"
       inkscape:connector-curvature="0"
       inkscape:path-effect="#path-effect5338"
       inkscape:original-d="M 164.47776,140 H 120" />
    <path
       style="fill:none;stroke:#000000;stroke-width:1;stroke-linecap:butt;stroke-linejoin:miter;stroke-miterlimit:4;stroke-dasharray:none;stroke-opacity:1;marker-end:url(#DotM)"
       d="M 154.47776,89.999999 H 120"
       id="path5340"
       inkscape:connector-curvature="0"
       inkscape:path-effect="#path-effect5342"
       inkscape:original-d="M 154.47776,89.999999 H 120" />
  </g>
  <g
     inkscape:label="GND"
     transform="translate(80.275325,65.145408)"
     id="g5133"
     inkscape:export-xdpi="600"
     inkscape:export-ydpi="600">
    <g
       inkscape:label="GND"
       id="g5131">
      <path
         d="m 70,90 v 10"
         style="fill:none;stroke:#000000;stroke-width:1;stroke-linecap:round;stroke-linejoin:round;stroke-dasharray:none"
         inkscape:label="none"
         id="path5123"
         inkscape:connector-curvature="0" />
      <path
         d="M 77,100 H 63"
         style="fill:none;stroke:#000000;stroke-width:1;stroke-linecap:round;stroke-linejoin:round;stroke-dasharray:none"
         inkscape:label="none"
         id="path5125"
         inkscape:connector-curvature="0" />
      <path
         d="m 73.5,102 h -7"
         style="fill:none;stroke:#000000;stroke-width:1;stroke-linecap:round;stroke-linejoin:round;stroke-dasharray:none"
         inkscape:label="none"
         id="path5127"
         inkscape:connector-curvature="0" />
      <path
         d="M 71,104 H 69"
         style="fill:none;stroke:#000000;stroke-width:1;stroke-linecap:round;stroke-linejoin:round;stroke-dasharray:none"
         inkscape:label="none"
         id="path5129"
         inkscape:connector-curvature="0" />
    </g>
  </g>
  <g
     id="g5267"
     transform="translate(49.806599,65.145408)"
     inkscape:label="GND"
     inkscape:export-xdpi="600"
     inkscape:export-ydpi="600">
    <g
       id="g5265"
       inkscape:label="GND">
      <path
         id="path5257"
         inkscape:label="none"
         style="fill:none;stroke:#000000;stroke-width:1;stroke-linecap:round;stroke-linejoin:round;stroke-dasharray:none"
         d="m 70,90 v 10"
         inkscape:connector-curvature="0" />
      <path
         id="path5259"
         inkscape:label="none"
         style="fill:none;stroke:#000000;stroke-width:1;stroke-linecap:round;stroke-linejoin:round;stroke-dasharray:none"
         d="M 77,100 H 63"
         inkscape:connector-curvature="0" />
      <path
         id="path5261"
         inkscape:label="none"
         style="fill:none;stroke:#000000;stroke-width:1;stroke-linecap:round;stroke-linejoin:round;stroke-dasharray:none"
         d="m 73.5,102 h -7"
         inkscape:connector-curvature="0" />
      <path
         id="path5263"
         inkscape:label="none"
         style="fill:none;stroke:#000000;stroke-width:1;stroke-linecap:round;stroke-linejoin:round;stroke-dasharray:none"
         d="M 71,104 H 69"
         inkscape:connector-curvature="0" />
    </g>
  </g>
  <g
     inkscape:label="GND"
     transform="rotate(-180,3.5751784,97.983914)"
     id="g5889"
     inkscape:export-xdpi="600"
     inkscape:export-ydpi="600">
    <g
       inkscape:label="GND"
       id="g5881"
       transform="translate(18.124803,25.323788)">
      <circle
         style="fill:#000000;stroke:#000000;stroke-width:0.69999999;stroke-linecap:round;stroke-linejoin:round;stroke-dasharray:none"
         inkscape:label="circle"
         id="path5879"
         cx="-20"
         cy="120"
         r="1" />
    </g>
    <g
       id="g5887"
       xml:space="preserve"
       stroke-miterlimit="10.433"
       font-style="normal"
       font-variant="normal"
       font-weight="normal"
       font-stretch="normal"
       font-size-adjust="none"
       letter-spacing="normal"
       word-spacing="normal"
       ns0:text=" $V_I$"
       ns0:preamble="C:\\Program Files\\Inkscape\\share\\extensions/textextLib/CircuitSymbolsLatexPreamble.tex"
       transform="matrix(-0.739645,0,0,0.739645,172.82344,-379.70467)"
       style="font-style:normal;font-variant:normal;font-weight:normal;font-stretch:normal;letter-spacing:normal;word-spacing:normal;text-anchor:start;fill:none;fill-opacity:1;fill-rule:evenodd;stroke:#000000;stroke-linecap:butt;stroke-linejoin:miter;stroke-miterlimit:10.43299961;stroke-dasharray:none;stroke-dashoffset:0;stroke-opacity:1">
<path
   d="m 229.7,712.89 0.04,0.07 0.05,0.06 0.04,0.07 0.04,0.05 0.05,0.06 0.04,0.05 0.05,0.05 0.04,0.04 0.04,0.04 0.04,0.04 0.04,0.03 0.05,0.03 0.04,0.03 0.04,0.03 0.04,0.02 0.04,0.02 0.04,0.02 0.04,0.02 0.04,0.01 0.03,0.02 0.04,0.01 0.04,0.01 0.04,0.01 h 0.03 l 0.04,0.01 h 0.04 l 0.07,0.01 0.07,0.01 h 0.07 c 0.12,0.01 0.13,0.18 0.13,0.19 0,0.08 -0.05,0.12 -0.13,0.12 -0.26,0 -0.55,-0.03 -0.82,-0.03 -0.33,0 -0.66,0.03 -0.98,0.03 -0.06,0 -0.19,0 -0.19,-0.19 0,-0.11 0.09,-0.12 0.16,-0.12 0.26,-0.02 0.46,-0.12 0.46,-0.33 0,-0.15 -0.15,-0.36 -0.15,-0.37 l -3.07,-4.85 -0.67,5.25 c 0,0.17 0.22,0.3 0.68,0.3 0.14,0 0.25,0 0.25,0.2 0,0.09 -0.08,0.11 -0.14,0.11 -0.4,0 -0.82,-0.03 -1.23,-0.03 -0.18,0 -0.37,0.01 -0.55,0.01 -0.18,0 -0.37,0.02 -0.54,0.02 -0.07,0 -0.19,0 -0.19,-0.19 0,-0.12 0.09,-0.12 0.25,-0.12 0.56,0 0.57,-0.09 0.6,-0.34 l 0.79,-6.13 c 0.03,-0.19 0.07,-0.22 0.19,-0.22 0.17,0 0.2,0.05 0.28,0.18 z"
   style="fill:#000000;stroke-width:0"
   id="path5883"
   inkscape:connector-curvature="0" />
<path
   d="m 232.13,709.94 0.01,0.02 v 0.02 l 0.01,0.02 v 0.02 l 0.01,0.02 0.01,0.02 v 0.01 l 0.01,0.02 0.01,0.01 v 0.01 l 0.01,0.02 0.01,0.01 0.01,0.01 0.01,0.01 0.02,0.01 0.01,0.01 0.01,0.01 h 0.02 l 0.02,0.01 0.02,0.01 h 0.02 l 0.01,0.01 h 0.01 0.02 0.01 0.01 l 0.02,0.01 h 0.01 0.02 0.01 0.02 0.02 0.01 l 0.02,0.01 h 0.02 0.02 0.02 0.02 0.02 0.02 0.03 0.02 0.02 c 0.18,0 0.26,0 0.26,0.15 0,0.06 -0.05,0.1 -0.11,0.1 -0.15,0 -0.32,-0.02 -0.47,-0.02 -0.15,0 -0.32,-0.01 -0.47,-0.01 0,0 -0.49,0.01 -0.49,0.01 -0.15,0 -0.32,0.02 -0.48,0.02 -0.04,0 -0.15,0 -0.15,-0.15 0,-0.1 0.08,-0.1 0.23,-0.1 0.01,0 0.15,0 0.27,-0.01 0.14,-0.02 0.19,-0.02 0.19,-0.1 0,-0.04 -0.02,-0.09 -0.03,-0.15 l -0.93,-3.69 c -0.05,-0.23 -0.07,-0.3 -0.6,-0.3 -0.19,0 -0.26,0 -0.26,-0.15 0,-0.01 0,-0.1 0.11,-0.1 0.21,0 0.74,0.03 0.95,0.03 l 0.48,-0.01 c 0.15,0 0.33,-0.02 0.48,-0.02 0.04,0 0.15,0 0.15,0.15 0,0.1 -0.09,0.1 -0.23,0.1 -0.01,0 -0.16,0 -0.29,0.02 -0.17,0.01 -0.17,0.04 -0.17,0.1 0,0.01 0,0.05 0.03,0.15 z"
   style="fill:#000000;stroke-width:0"
   id="path5885"
   inkscape:connector-curvature="0" />
</g>  </g>
  <g
     id="g6095"
     transform="rotate(-180,102.29316,99.587534)"
     inkscape:label="GND"
     inkscape:export-xdpi="600"
     inkscape:export-ydpi="600">
    <g
       id="g6087"
       inkscape:label="GND"
       transform="translate(11.706506,18.517911)"
       inkscape:export-xdpi="600"
       inkscape:export-ydpi="600">
      <circle
         id="path6085"
         inkscape:label="circle"
         style="fill:#000000;stroke:#000000;stroke-width:0.69999999;stroke-linecap:round;stroke-linejoin:round;stroke-dasharray:none"
         cx="-20"
         cy="120"
         r="1" />
    </g>
    <g
       transform="matrix(-0.739645,0,0,0.739645,154.77093,-386.39815)"
       ns0:preamble="C:\\Program Files\\Inkscape\\share\\extensions/textextLib/CircuitSymbolsLatexPreamble.tex"
       ns0:text=" $V_O$"
       word-spacing="normal"
       letter-spacing="normal"
       font-size-adjust="none"
       font-stretch="normal"
       font-weight="normal"
       font-variant="normal"
       font-style="normal"
       stroke-miterlimit="10.433"
       xml:space="preserve"
       id="g6093"
       style="font-style:normal;font-variant:normal;font-weight:normal;font-stretch:normal;letter-spacing:normal;word-spacing:normal;text-anchor:start;fill:none;fill-opacity:1;fill-rule:evenodd;stroke:#000000;stroke-linecap:butt;stroke-linejoin:miter;stroke-miterlimit:10.43299961;stroke-dasharray:none;stroke-dashoffset:0;stroke-opacity:1"
       inkscape:export-xdpi="600"
       inkscape:export-ydpi="600">
<path
   id="path6089"
   style="fill:#000000;stroke-width:0"
   d="m 229.7,712.89 0.04,0.07 0.05,0.06 0.04,0.07 0.04,0.05 0.05,0.06 0.04,0.05 0.05,0.05 0.04,0.04 0.04,0.04 0.04,0.04 0.04,0.03 0.05,0.03 0.04,0.03 0.04,0.03 0.04,0.02 0.04,0.02 0.04,0.02 0.04,0.02 0.04,0.01 0.03,0.02 0.04,0.01 0.04,0.01 0.04,0.01 h 0.03 l 0.04,0.01 h 0.04 l 0.07,0.01 0.07,0.01 h 0.07 c 0.12,0.01 0.13,0.18 0.13,0.19 0,0.08 -0.05,0.12 -0.13,0.12 -0.26,0 -0.55,-0.03 -0.82,-0.03 -0.33,0 -0.66,0.03 -0.98,0.03 -0.06,0 -0.19,0 -0.19,-0.19 0,-0.11 0.09,-0.12 0.16,-0.12 0.26,-0.02 0.46,-0.12 0.46,-0.33 0,-0.15 -0.15,-0.36 -0.15,-0.37 l -3.07,-4.85 -0.67,5.25 c 0,0.17 0.22,0.3 0.68,0.3 0.14,0 0.25,0 0.25,0.2 0,0.09 -0.08,0.11 -0.14,0.11 -0.4,0 -0.82,-0.03 -1.23,-0.03 -0.18,0 -0.37,0.01 -0.55,0.01 -0.18,0 -0.37,0.02 -0.54,0.02 -0.07,0 -0.19,0 -0.19,-0.19 0,-0.12 0.09,-0.12 0.25,-0.12 0.56,0 0.57,-0.09 0.6,-0.34 l 0.79,-6.13 c 0.03,-0.19 0.07,-0.22 0.19,-0.22 0.17,0 0.2,0.05 0.28,0.18 z"
   inkscape:connector-curvature="0" />
<path
   id="path6091"
   style="fill:#000000;stroke-width:0"
   d="m 235.04,708.7 v 0.1 l -0.01,0.1 -0.01,0.1 -0.02,0.09 -0.02,0.1 -0.02,0.09 -0.03,0.09 -0.03,0.09 -0.04,0.08 -0.04,0.09 -0.05,0.08 -0.05,0.08 -0.05,0.07 -0.05,0.08 -0.07,0.07 -0.06,0.06 -0.07,0.07 -0.07,0.06 -0.07,0.05 -0.08,0.06 -0.08,0.04 -0.09,0.05 -0.09,0.04 -0.09,0.04 -0.09,0.03 -0.1,0.03 -0.1,0.03 -0.1,0.02 -0.11,0.02 -0.11,0.01 -0.11,0.01 h -0.12 l -0.05,-0.22 c 0.72,0 1.39,-0.46 1.39,-1.47 0,-0.51 -0.21,-1.52 -0.86,-2.27 -0.49,-0.55 -1.13,-0.84 -1.67,-0.84 v 0 c -0.74,0 -1.37,0.5 -1.37,1.53 0,0.36 0.09,1.34 0.74,2.14 0.47,0.57 1.14,0.91 1.77,0.91 l 0.05,0.22 c -1.67,0 -3.28,-1.56 -3.28,-3.12 0,-1.12 0.83,-1.91 2.03,-1.91 1.67,0 3.28,1.52 3.28,3.1 z"
   inkscape:connector-curvature="0" />
</g>  </g>
  <circle
     id="path6200"
     style="fill:#000000;stroke:none"
     cx="200.27533"
     cy="60.667652"
     r="1.5"
     inkscape:export-xdpi="600"
     inkscape:export-ydpi="600" />
  <path
     style="fill:none;stroke:#000000;stroke-width:1;stroke-linecap:butt;stroke-linejoin:miter;stroke-miterlimit:4;stroke-dasharray:none;stroke-opacity:1"
     d="m 200.27532,60.667647 h 12.98809"
     id="path6202"
     inkscape:connector-curvature="0"
     inkscape:path-effect="#path-effect6204"
     inkscape:original-d="m 200.27532,60.667647 h 12.98809"
     inkscape:export-xdpi="600"
     inkscape:export-ydpi="600" />
  <g
     id="g1449"
     inkscape:label="Capacitor"
     transform="translate(-110.61692,-29.332359)"
     inkscape:export-xdpi="600"
     inkscape:export-ydpi="600">
    <g
       id="g1429"
       inkscape:label="Capacitor">
      <path
         id="path1421"
         inkscape:label="none"
         style="fill:none;stroke:#000000;stroke-width:1;stroke-linecap:round;stroke-linejoin:round;stroke-dasharray:none"
         d="m 120,80 h 23"
         inkscape:connector-curvature="0" />
      <path
         id="path1423"
         inkscape:label="none"
         style="fill:none;stroke:#000000;stroke-width:1;stroke-linecap:round;stroke-linejoin:round;stroke-dasharray:none"
         d="M 170,80 H 147"
         inkscape:connector-curvature="0" />
      <path
         id="path1425"
         inkscape:label="none"
         style="fill:none;stroke:#000000;stroke-width:1;stroke-linecap:round;stroke-linejoin:round;stroke-dasharray:none"
         d="M 143,87 V 73"
         inkscape:connector-curvature="0" />
      <path
         id="path1427"
         inkscape:label="none"
         style="fill:none;stroke:#000000;stroke-width:1;stroke-linecap:round;stroke-linejoin:round;stroke-dasharray:none"
         d="M 147,87 V 73"
         inkscape:connector-curvature="0" />
    </g>
    <g
       transform="matrix(0.739645,0,0,-0.739645,-24.301042,590.66373)"
       ns0:preamble="C:\\Program Files\\Inkscape\\share\\extensions/textextLib/CircuitSymbolsLatexPreamble.tex"
       ns0:text=" $C_1$"
       word-spacing="normal"
       letter-spacing="normal"
       font-size-adjust="none"
       font-stretch="normal"
       font-weight="normal"
       font-variant="normal"
       font-style="normal"
       stroke-miterlimit="10.433"
       xml:space="preserve"
       id="g1435"
       style="font-style:normal;font-variant:normal;font-weight:normal;font-stretch:normal;letter-spacing:normal;word-spacing:normal;text-anchor:start;fill:none;fill-opacity:1;fill-rule:evenodd;stroke:#000000;stroke-linecap:butt;stroke-linejoin:miter;stroke-miterlimit:10.43299961;stroke-dasharray:none;stroke-dashoffset:0;stroke-opacity:1">
<path
   id="path1431"
   style="fill:#000000;stroke-width:0"
   d="m 231.01,714.14 v 0 0.01 0 0 0.01 0 0 0.01 0 l -0.01,0.01 v 0 0 0.01 0 l -0.01,0.01 v 0 0 l -0.01,0.01 v 0 0 l -0.01,0.01 v 0 h -0.01 v 0.01 h -0.01 v 0 h -0.01 v 0 0 h -0.01 v 0 0.01 h -0.01 v 0 0 h -0.01 v 0 0 h -0.01 c -0.03,0 -0.04,-0.01 -0.15,-0.12 l -0.7,-0.77 c -0.09,0.14 -0.54,0.89 -1.65,0.89 -2.23,0 -4.47,-2.2 -4.47,-4.5 0,-1.64 1.18,-2.72 2.7,-2.72 0.87,0 1.63,0.39 2.16,0.85 0.92,0.81 1.09,1.72 1.09,1.75 0,0.1 -0.1,0.1 -0.12,0.1 -0.06,0 -0.11,-0.02 -0.13,-0.1 -0.09,-0.29 -0.31,-0.99 -1,-1.57 -0.69,-0.56 -1.32,-0.73 -1.84,-0.73 -0.89,0 -1.95,0.52 -1.95,2.07 0,0.57 0.21,2.18 1.2,3.34 0.61,0.7 1.55,1.2 2.44,1.2 1.01,0 1.6,-0.77 1.6,-1.92 0,-0.39 -0.03,-0.4 -0.03,-0.5 0,-0.1 0.11,-0.1 0.15,-0.1 0.13,0 0.13,0.02 0.18,0.2 z"
   inkscape:connector-curvature="0" />
<path
   id="path1433"
   style="fill:#000000;stroke-width:0"
   d="m 232.9,710.16 -0.01,0.01 v 0.01 0.01 0.01 0 0.01 0.01 0.01 0 0.01 0.01 0 0.01 0 0.01 0 0.01 0 0.01 l -0.01,0.01 v 0.01 0 l -0.01,0.01 v 0.01 h -0.01 v 0.01 h -0.01 v 0 l -0.01,0.01 h -0.01 -0.01 -0.01 v 0 h -0.01 v 0 l -0.01,0.01 h -0.01 v 0 h -0.01 -0.01 v 0 h -0.01 -0.01 v 0 h -0.01 -0.01 -0.01 -0.01 v 0 h -0.01 c -0.45,-0.44 -1.09,-0.45 -1.37,-0.45 v -0.25 c 0.16,0 0.62,0 1.01,0.2 v -3.55 c 0,-0.23 0,-0.32 -0.7,-0.32 h -0.27 v -0.25 c 0.13,0.01 0.99,0.03 1.25,0.03 0.21,0 1.1,-0.02 1.25,-0.03 v 0.25 h -0.26 c -0.7,0 -0.7,0.09 -0.7,0.32 z"
   inkscape:connector-curvature="0" />
</g>    <g
       id="g1447"
       inkscape:label="name">
      <path
         id="path1437"
         inkscape:label="none"
         style="fill:none;stroke:#ff0000;stroke-width:1;stroke-linecap:round;stroke-linejoin:round;stroke-dasharray:none;marker-end:url(#arrowCurrentEnd)"
         d="m 155,75 h 10"
         inkscape:connector-curvature="0" />
      <g
         transform="matrix(0.739645,0,0,-0.739645,-7.858735,594.3304)"
         ns0:preamble="C:\\Program Files\\Inkscape\\share\\extensions/textextLib/CircuitSymbolsLatexPreamble.tex"
         ns0:text=" $i_1$"
         word-spacing="normal"
         letter-spacing="normal"
         font-size-adjust="none"
         font-stretch="normal"
         font-weight="normal"
         font-variant="normal"
         font-style="normal"
         stroke-miterlimit="10.433"
         xml:space="preserve"
         id="g1445"
         style="font-style:normal;font-variant:normal;font-weight:normal;font-stretch:normal;letter-spacing:normal;word-spacing:normal;text-anchor:start;fill:none;fill-opacity:1;fill-rule:evenodd;stroke:#000000;stroke-linecap:butt;stroke-linejoin:miter;stroke-miterlimit:10.43299961;stroke-dasharray:none;stroke-dashoffset:0;stroke-opacity:1">
<path
   id="path1439"
   style="fill:#ff0000;stroke-width:0"
   d="m 226.26,713.44 v 0.02 0.02 0.02 0.02 l -0.01,0.01 v 0.02 l -0.01,0.02 v 0.01 l -0.01,0.02 -0.01,0.01 v 0.02 l -0.01,0.01 -0.01,0.02 -0.01,0.01 -0.01,0.01 -0.01,0.02 -0.02,0.01 -0.01,0.01 -0.01,0.01 -0.02,0.01 -0.01,0.01 -0.02,0.01 -0.01,0.01 h -0.02 l -0.02,0.01 -0.02,0.01 H 226 225.98 l -0.02,0.01 h -0.02 -0.02 -0.02 c -0.27,0 -0.54,-0.26 -0.54,-0.52 0,-0.19 0.14,-0.36 0.38,-0.36 0.22,0 0.52,0.23 0.52,0.52 z"
   inkscape:connector-curvature="0" />
<path
   id="path1441"
   style="fill:#ff0000;stroke-width:0"
   d="m 225.51,709.71 0.01,0.02 0.01,0.03 0.01,0.02 0.01,0.02 v 0.03 l 0.01,0.02 0.01,0.01 0.01,0.02 v 0.02 l 0.01,0.02 0.01,0.01 v 0.02 l 0.01,0.01 v 0.02 l 0.01,0.02 0.01,0.03 0.01,0.03 0.01,0.02 v 0.01 l 0.01,0.02 0.01,0.01 v 0.02 l 0.01,0.02 0.01,0.02 v 0.01 l 0.01,0.03 0.01,0.02 0.01,0.02 0.01,0.02 c 0.07,0.2 0.12,0.34 0.12,0.53 0,0.45 -0.31,0.82 -0.81,0.82 -0.94,0 -1.32,-1.45 -1.32,-1.53 0,-0.1 0.1,-0.1 0.12,-0.1 0.1,0 0.11,0.02 0.16,0.17 0.27,0.94 0.67,1.24 1.01,1.24 0.08,0 0.25,0 0.25,-0.32 0,-0.21 -0.07,-0.42 -0.11,-0.52 -0.08,-0.26 -0.53,-1.41 -0.69,-1.84 -0.1,-0.25 -0.23,-0.58 -0.23,-0.79 0,-0.47 0.34,-0.81 0.82,-0.81 0.94,0 1.3,1.44 1.3,1.53 0,0.1 -0.09,0.1 -0.12,0.1 -0.1,0 -0.1,-0.04 -0.14,-0.18 -0.19,-0.63 -0.51,-1.24 -1.02,-1.24 -0.17,0 -0.24,0.1 -0.24,0.33 0,0.25 0.06,0.39 0.29,0.99 z"
   inkscape:connector-curvature="0" />
<path
   id="path1443"
   style="fill:#ff0000;stroke-width:0"
   d="m 229.21,710.16 v 0.01 0.01 0.01 0.01 0 0.01 0.01 0.01 h -0.01 v 0.01 0.01 0 0.01 0 0.01 0 0.01 0 0.01 l -0.01,0.01 v 0.01 0 l -0.01,0.01 v 0.01 h -0.01 v 0.01 h -0.01 v 0 l -0.01,0.01 h -0.01 -0.01 -0.01 v 0 h -0.01 v 0 l -0.01,0.01 h -0.01 v 0 h -0.01 v 0 h -0.01 -0.01 -0.01 v 0 h -0.01 -0.01 -0.01 -0.01 v 0 H 229 c -0.45,-0.44 -1.09,-0.45 -1.37,-0.45 v -0.25 c 0.16,0 0.63,0 1.01,0.2 v -3.55 c 0,-0.23 0,-0.32 -0.7,-0.32 h -0.26 v -0.25 c 0.12,0.01 0.98,0.03 1.24,0.03 0.22,0 1.1,-0.02 1.25,-0.03 v 0.25 h -0.26 c -0.7,0 -0.7,0.09 -0.7,0.32 z"
   inkscape:connector-curvature="0" />
</g>    </g>
  </g>
  <g
     transform="translate(9.383081,-19.332359)"
     inkscape:label="Capacitor"
     id="g1734"
     inkscape:export-xdpi="600"
     inkscape:export-ydpi="600">
    <g
       inkscape:label="Capacitor"
       id="g1715">
      <path
         inkscape:connector-curvature="0"
         d="M 50,70 H 73"
         style="fill:none;stroke:#000000;stroke-width:1;stroke-linecap:round;stroke-linejoin:round;stroke-dasharray:none"
         inkscape:label="none"
         id="path1707" />
      <path
         inkscape:connector-curvature="0"
         d="M 100,70 H 77"
         style="fill:none;stroke:#000000;stroke-width:1;stroke-linecap:round;stroke-linejoin:round;stroke-dasharray:none"
         inkscape:label="none"
         id="path1709" />
      <path
         inkscape:connector-curvature="0"
         d="M 73,77 V 63"
         style="fill:none;stroke:#000000;stroke-width:1;stroke-linecap:round;stroke-linejoin:round;stroke-dasharray:none"
         inkscape:label="none"
         id="path1711" />
      <path
         inkscape:connector-curvature="0"
         d="M 77,77 V 63"
         style="fill:none;stroke:#000000;stroke-width:1;stroke-linecap:round;stroke-linejoin:round;stroke-dasharray:none"
         inkscape:label="none"
         id="path1713" />
    </g>
    <g
       style="font-style:normal;font-variant:normal;font-weight:normal;font-stretch:normal;letter-spacing:normal;word-spacing:normal;text-anchor:start;fill:none;fill-opacity:1;fill-rule:evenodd;stroke:#000000;stroke-linecap:butt;stroke-linejoin:miter;stroke-miterlimit:10.43299961;stroke-dasharray:none;stroke-dashoffset:0;stroke-opacity:1"
       id="content"
       xml:space="preserve"
       stroke-miterlimit="10.433"
       font-style="normal"
       font-variant="normal"
       font-weight="normal"
       font-stretch="normal"
       font-size-adjust="none"
       letter-spacing="normal"
       word-spacing="normal"
       ns0:text=" $C_2$"
       ns0:preamble="C:\\Program Files\\Inkscape\\share\\extensions/textextLib/CircuitSymbolsLatexPreamble.tex"
       transform="matrix(0.739645,0,0,-0.739645,-94.382403,580.66373)">
<path
   inkscape:connector-curvature="0"
   d="m 231.01,714.14 v 0 0.01 0 0 0.01 0 0 0.01 0 l -0.01,0.01 v 0 0 0.01 0 l -0.01,0.01 v 0 0 l -0.01,0.01 v 0 0 l -0.01,0.01 v 0 h -0.01 v 0.01 h -0.01 v 0 h -0.01 v 0 0 h -0.01 v 0 0.01 h -0.01 v 0 0 h -0.01 v 0 0 h -0.01 c -0.03,0 -0.04,-0.01 -0.15,-0.12 l -0.7,-0.77 c -0.09,0.14 -0.54,0.89 -1.65,0.89 -2.23,0 -4.47,-2.2 -4.47,-4.5 0,-1.64 1.18,-2.72 2.7,-2.72 0.87,0 1.63,0.39 2.16,0.85 0.92,0.81 1.09,1.72 1.09,1.75 0,0.1 -0.1,0.1 -0.12,0.1 -0.06,0 -0.11,-0.02 -0.13,-0.1 -0.09,-0.29 -0.31,-0.99 -1,-1.57 -0.69,-0.56 -1.32,-0.73 -1.84,-0.73 -0.89,0 -1.95,0.52 -1.95,2.07 0,0.57 0.21,2.18 1.2,3.34 0.61,0.7 1.55,1.2 2.44,1.2 1.01,0 1.6,-0.77 1.6,-1.92 0,-0.39 -0.03,-0.4 -0.03,-0.5 0,-0.1 0.11,-0.1 0.15,-0.1 0.13,0 0.13,0.02 0.18,0.2 z"
   style="fill:#000000;stroke-width:0"
   id="path1717" />
<path
   inkscape:connector-curvature="0"
   d="m 234.08,707.01 h -0.23 c -0.03,-0.16 -0.09,-0.57 -0.19,-0.64 -0.05,-0.04 -0.59,-0.04 -0.69,-0.04 h -1.28 c 0.73,0.65 0.97,0.84 1.39,1.17 0.52,0.41 1,0.84 1,1.5 0,0.84 -0.74,1.36 -1.63,1.36 -0.87,0 -1.46,-0.61 -1.46,-1.25 0,-0.35 0.3,-0.39 0.37,-0.39 0.17,0 0.38,0.12 0.38,0.37 0,0.13 -0.05,0.37 -0.42,0.37 0.22,0.5 0.69,0.65 1.02,0.65 0.7,0 1.07,-0.54 1.07,-1.11 0,-0.6 -0.44,-1.08 -0.66,-1.33 l -1.69,-1.66 c -0.07,-0.06 -0.07,-0.07 -0.07,-0.27 h 2.88 z"
   style="fill:#000000;stroke-width:0"
   id="path1719" />
</g>    <g
       inkscape:label="name"
       id="g1732">
      <path
         inkscape:connector-curvature="0"
         d="M 85,65 H 95"
         style="fill:none;stroke:#ff0000;stroke-width:1;stroke-linecap:round;stroke-linejoin:round;stroke-dasharray:none;marker-end:url(#arrowCurrentEnd)"
         inkscape:label="none"
         id="path1722" />
      <g
         style="font-style:normal;font-variant:normal;font-weight:normal;font-stretch:normal;letter-spacing:normal;word-spacing:normal;text-anchor:start;fill:none;fill-opacity:1;fill-rule:evenodd;stroke:#000000;stroke-linecap:butt;stroke-linejoin:miter;stroke-miterlimit:10.43299961;stroke-dasharray:none;stroke-dashoffset:0;stroke-opacity:1"
         id="g1730"
         xml:space="preserve"
         stroke-miterlimit="10.433"
         font-style="normal"
         font-variant="normal"
         font-weight="normal"
         font-stretch="normal"
         font-size-adjust="none"
         letter-spacing="normal"
         word-spacing="normal"
         ns0:text=" $i_2$"
         ns0:preamble="C:\\Program Files\\Inkscape\\share\\extensions/textextLib/CircuitSymbolsLatexPreamble.tex"
         transform="matrix(0.739645,0,0,-0.739645,-77.943794,584.3304)">
<path
   inkscape:connector-curvature="0"
   d="m 226.26,713.44 v 0.02 0.02 0.02 0.02 l -0.01,0.01 v 0.02 l -0.01,0.02 v 0.01 l -0.01,0.02 -0.01,0.01 v 0.02 l -0.01,0.01 -0.01,0.02 -0.01,0.01 -0.01,0.01 -0.01,0.02 -0.02,0.01 -0.01,0.01 -0.01,0.01 -0.02,0.01 -0.01,0.01 -0.02,0.01 -0.01,0.01 h -0.02 l -0.02,0.01 -0.02,0.01 H 226 225.98 l -0.02,0.01 h -0.02 -0.02 -0.02 c -0.27,0 -0.54,-0.26 -0.54,-0.52 0,-0.19 0.14,-0.36 0.38,-0.36 0.22,0 0.52,0.23 0.52,0.52 z"
   style="fill:#ff0000;stroke-width:0"
   id="path1724" />
<path
   inkscape:connector-curvature="0"
   d="m 225.51,709.71 0.01,0.02 0.01,0.03 0.01,0.02 0.01,0.02 v 0.03 l 0.01,0.02 0.01,0.01 0.01,0.02 v 0.02 l 0.01,0.02 0.01,0.01 v 0.02 l 0.01,0.01 v 0.02 l 0.01,0.02 0.01,0.03 0.01,0.03 0.01,0.02 v 0.01 l 0.01,0.02 0.01,0.01 v 0.02 l 0.01,0.02 0.01,0.02 v 0.01 l 0.01,0.03 0.01,0.02 0.01,0.02 0.01,0.02 c 0.07,0.2 0.12,0.34 0.12,0.53 0,0.45 -0.31,0.82 -0.81,0.82 -0.94,0 -1.32,-1.45 -1.32,-1.53 0,-0.1 0.1,-0.1 0.12,-0.1 0.1,0 0.11,0.02 0.16,0.17 0.27,0.94 0.67,1.24 1.01,1.24 0.08,0 0.25,0 0.25,-0.32 0,-0.21 -0.07,-0.42 -0.11,-0.52 -0.08,-0.26 -0.53,-1.41 -0.69,-1.84 -0.1,-0.25 -0.23,-0.58 -0.23,-0.79 0,-0.47 0.34,-0.81 0.82,-0.81 0.94,0 1.3,1.44 1.3,1.53 0,0.1 -0.09,0.1 -0.12,0.1 -0.1,0 -0.1,-0.04 -0.14,-0.18 -0.19,-0.63 -0.51,-1.24 -1.02,-1.24 -0.17,0 -0.24,0.1 -0.24,0.33 0,0.25 0.06,0.39 0.29,0.99 z"
   style="fill:#ff0000;stroke-width:0"
   id="path1726" />
<path
   inkscape:connector-curvature="0"
   d="m 230.4,707.01 h -0.24 c -0.02,-0.16 -0.09,-0.57 -0.18,-0.64 -0.06,-0.04 -0.6,-0.04 -0.7,-0.04 H 228 c 0.73,0.65 0.98,0.84 1.4,1.17 0.51,0.41 1,0.84 1,1.5 0,0.84 -0.75,1.36 -1.64,1.36 -0.87,0 -1.46,-0.61 -1.46,-1.25 0,-0.35 0.3,-0.39 0.38,-0.39 0.16,0 0.37,0.12 0.37,0.37 0,0.13 -0.05,0.37 -0.42,0.37 0.22,0.5 0.69,0.65 1.02,0.65 0.7,0 1.07,-0.54 1.07,-1.11 0,-0.6 -0.44,-1.08 -0.66,-1.33 l -1.69,-1.66 c -0.07,-0.06 -0.07,-0.07 -0.07,-0.27 h 2.88 z"
   style="fill:#ff0000;stroke-width:0"
   id="path1728" />
</g>    </g>
  </g>
  <g
     inkscape:label="Capacitor"
     transform="rotate(-90,152.476,82.669405)"
     id="g2321"
     inkscape:export-xdpi="600"
     inkscape:export-ydpi="600">
    <g
       inkscape:label="Capacitor"
       id="g2301">
      <path
         inkscape:connector-curvature="0"
         d="m 80,50 h 23"
         style="fill:none;stroke:#000000;stroke-width:1;stroke-linecap:round;stroke-linejoin:round;stroke-dasharray:none"
         inkscape:label="none"
         id="path2293" />
      <path
         inkscape:connector-curvature="0"
         d="M 130,50 H 107"
         style="fill:none;stroke:#000000;stroke-width:1;stroke-linecap:round;stroke-linejoin:round;stroke-dasharray:none"
         inkscape:label="none"
         id="path2295" />
      <path
         inkscape:connector-curvature="0"
         d="M 103,57 V 43"
         style="fill:none;stroke:#000000;stroke-width:1;stroke-linecap:round;stroke-linejoin:round;stroke-dasharray:none"
         inkscape:label="none"
         id="path2297" />
      <path
         inkscape:connector-curvature="0"
         d="M 107,57 V 43"
         style="fill:none;stroke:#000000;stroke-width:1;stroke-linecap:round;stroke-linejoin:round;stroke-dasharray:none"
         inkscape:label="none"
         id="path2299" />
    </g>
    <g
       style="font-style:normal;font-variant:normal;font-weight:normal;font-stretch:normal;letter-spacing:normal;word-spacing:normal;text-anchor:start;fill:none;fill-opacity:1;fill-rule:evenodd;stroke:#000000;stroke-linecap:butt;stroke-linejoin:miter;stroke-miterlimit:10.43299961;stroke-dasharray:none;stroke-dashoffset:0;stroke-opacity:1"
       id="g2307"
       xml:space="preserve"
       stroke-miterlimit="10.433"
       font-style="normal"
       font-variant="normal"
       font-weight="normal"
       font-stretch="normal"
       font-size-adjust="none"
       letter-spacing="normal"
       word-spacing="normal"
       ns0:text=" $R_2$"
       ns0:preamble="C:\\Program Files\\Inkscape\\share\\extensions/textextLib/CircuitSymbolsLatexPreamble.tex"
       transform="matrix(0,0.739645,0.739645,0,-420.0592,-133.911)">
<path
   inkscape:connector-curvature="0"
   d="m 228.61,710.61 0.09,0.02 0.1,0.03 0.09,0.03 0.1,0.03 0.1,0.03 0.09,0.03 0.1,0.04 0.1,0.04 0.09,0.05 0.09,0.04 0.09,0.05 0.09,0.05 0.09,0.05 0.09,0.06 0.08,0.06 0.08,0.06 0.08,0.06 0.07,0.06 0.08,0.07 0.06,0.07 0.07,0.07 0.06,0.07 0.05,0.08 0.05,0.08 0.05,0.08 0.03,0.08 0.04,0.08 0.03,0.09 0.02,0.09 0.02,0.09 0.01,0.09 v 0.09 c 0,0.85 -0.9,1.49 -2.2,1.49 h -2.84 c -0.2,0 -0.29,0 -0.29,-0.2 0,-0.11 0.09,-0.11 0.28,-0.11 0.01,0 0.21,0 0.38,-0.02 0.17,-0.02 0.26,-0.03 0.26,-0.16 0,-0.04 -0.01,-0.07 -0.04,-0.19 l -1.33,-5.33 c -0.1,-0.39 -0.12,-0.47 -0.91,-0.47 -0.18,0 -0.27,0 -0.27,-0.2 0,-0.11 0.12,-0.11 0.14,-0.11 0.28,0 0.98,0.04 1.26,0.04 0.28,0 0.98,-0.04 1.26,-0.04 0.08,0 0.2,0 0.2,0.2 0,0.11 -0.09,0.11 -0.28,0.11 -0.37,0 -0.65,0 -0.65,0.18 0,0.06 0.02,0.11 0.03,0.17 l 0.66,2.63 h 1.19 l -0.01,0.22 h -1.12 l 0.65,2.59 c 0.06,0.24 0.09,0.34 0.28,0.37 0.09,0.01 0.41,0.01 0.61,0.01 0.71,0 1.81,0 1.81,-0.98 0,-0.34 -0.16,-1.02 -0.55,-1.41 -0.25,-0.26 -0.78,-0.58 -1.68,-0.58 l 0.01,-0.22 c 0.91,0 1.09,-0.55 1.09,-0.9 0,-0.15 -0.08,-0.46 -0.14,-0.69 -0.07,-0.27 -0.16,-0.64 -0.16,-0.84 0,-1.07 1.19,-1.07 1.32,-1.07 0.85,0 1.2,1 1.2,1.14 0,0.12 -0.11,0.12 -0.12,0.12 -0.09,0 -0.11,-0.07 -0.13,-0.14 -0.25,-0.74 -0.68,-0.91 -0.91,-0.91 -0.32,0 -0.4,0.22 -0.4,0.61 0,0.31 0.06,0.82 0.11,1.13 0.01,0.14 0.03,0.33 0.03,0.47 0,0.77 -0.66,1.07 -0.93,1.17 z"
   style="fill:#000000;stroke-width:0"
   id="path2303" />
<path
   inkscape:connector-curvature="0"
   d="m 234.53,707.01 h -0.24 c -0.02,-0.16 -0.09,-0.57 -0.18,-0.64 -0.06,-0.04 -0.6,-0.04 -0.69,-0.04 h -1.29 c 0.73,0.65 0.98,0.84 1.4,1.17 0.52,0.41 1,0.84 1,1.5 0,0.84 -0.74,1.36 -1.64,1.36 -0.87,0 -1.45,-0.61 -1.45,-1.25 0,-0.35 0.3,-0.39 0.37,-0.39 0.17,0 0.37,0.12 0.37,0.37 0,0.13 -0.05,0.37 -0.41,0.37 0.21,0.5 0.69,0.65 1.02,0.65 0.7,0 1.06,-0.54 1.06,-1.11 0,-0.6 -0.43,-1.08 -0.66,-1.33 l -1.68,-1.66 c -0.07,-0.06 -0.07,-0.07 -0.07,-0.27 h 2.88 z"
   style="fill:#000000;stroke-width:0"
   id="path2305" />
</g>    <g
       inkscape:label="name"
       id="g2319">
      <path
         inkscape:connector-curvature="0"
         d="M 125,45 H 115"
         style="fill:none;stroke:#ff0000;stroke-width:1;stroke-linecap:round;stroke-linejoin:round;stroke-dasharray:none;marker-end:url(#arrowCurrentEnd)"
         inkscape:label="none"
         id="path2309" />
      <g
         style="font-style:normal;font-variant:normal;font-weight:normal;font-stretch:normal;letter-spacing:normal;word-spacing:normal;text-anchor:start;fill:none;fill-opacity:1;fill-rule:evenodd;stroke:#000000;stroke-linecap:butt;stroke-linejoin:miter;stroke-miterlimit:10.43299961;stroke-dasharray:none;stroke-dashoffset:0;stroke-opacity:1"
         id="g2317"
         xml:space="preserve"
         stroke-miterlimit="10.433"
         font-style="normal"
         font-variant="normal"
         font-weight="normal"
         font-stretch="normal"
         font-size-adjust="none"
         letter-spacing="normal"
         word-spacing="normal"
         ns0:text=" $i_3$"
         ns0:preamble="C:\\Program Files\\Inkscape\\share\\extensions/textextLib/CircuitSymbolsLatexPreamble.tex"
         transform="matrix(0,0.739645,0.739645,0,-404.92606,-128.12525)">
<path
   inkscape:connector-curvature="0"
   d="m 226.26,713.44 v 0.02 0.02 0.02 0.02 l -0.01,0.01 v 0.02 l -0.01,0.02 v 0.01 l -0.01,0.02 -0.01,0.01 v 0.02 l -0.01,0.01 -0.01,0.02 -0.01,0.01 -0.01,0.01 -0.01,0.02 -0.02,0.01 -0.01,0.01 -0.01,0.01 -0.02,0.01 -0.01,0.01 -0.02,0.01 -0.01,0.01 h -0.02 l -0.02,0.01 -0.02,0.01 H 226 225.98 l -0.02,0.01 h -0.02 -0.02 -0.02 c -0.27,0 -0.54,-0.26 -0.54,-0.52 0,-0.19 0.14,-0.36 0.38,-0.36 0.22,0 0.52,0.23 0.52,0.52 z"
   style="fill:#ff0000;stroke-width:0"
   id="path2311" />
<path
   inkscape:connector-curvature="0"
   d="m 225.51,709.71 0.01,0.02 0.01,0.03 0.01,0.02 0.01,0.02 v 0.03 l 0.01,0.02 0.01,0.01 0.01,0.02 v 0.02 l 0.01,0.02 0.01,0.01 v 0.02 l 0.01,0.01 v 0.02 l 0.01,0.02 0.01,0.03 0.01,0.03 0.01,0.02 v 0.01 l 0.01,0.02 0.01,0.01 v 0.02 l 0.01,0.02 0.01,0.02 v 0.01 l 0.01,0.03 0.01,0.02 0.01,0.02 0.01,0.02 c 0.07,0.2 0.12,0.34 0.12,0.53 0,0.45 -0.31,0.82 -0.81,0.82 -0.94,0 -1.32,-1.45 -1.32,-1.53 0,-0.1 0.1,-0.1 0.12,-0.1 0.1,0 0.11,0.02 0.16,0.17 0.27,0.94 0.67,1.24 1.01,1.24 0.08,0 0.25,0 0.25,-0.32 0,-0.21 -0.07,-0.42 -0.11,-0.52 -0.08,-0.26 -0.53,-1.41 -0.69,-1.84 -0.1,-0.25 -0.23,-0.58 -0.23,-0.79 0,-0.47 0.34,-0.81 0.82,-0.81 0.94,0 1.3,1.44 1.3,1.53 0,0.1 -0.09,0.1 -0.12,0.1 -0.1,0 -0.1,-0.04 -0.14,-0.18 -0.19,-0.63 -0.51,-1.24 -1.02,-1.24 -0.17,0 -0.24,0.1 -0.24,0.33 0,0.25 0.06,0.39 0.29,0.99 z"
   style="fill:#ff0000;stroke-width:0"
   id="path2313" />
<path
   inkscape:connector-curvature="0"
   d="m 228.77,708.06 h 0.05 0.05 l 0.05,-0.01 h 0.05 l 0.05,-0.01 0.04,-0.02 0.05,-0.01 0.04,-0.02 0.04,-0.02 0.04,-0.02 0.04,-0.02 0.04,-0.02 0.04,-0.03 0.03,-0.03 0.03,-0.03 0.04,-0.04 0.03,-0.03 0.02,-0.04 0.03,-0.04 0.03,-0.05 0.02,-0.04 0.02,-0.05 0.02,-0.05 0.02,-0.05 0.02,-0.05 0.01,-0.06 0.01,-0.05 0.01,-0.06 0.01,-0.07 0.01,-0.06 v -0.07 -0.07 c 0,-0.86 -0.5,-1.12 -0.91,-1.12 -0.28,0 -0.89,0.08 -1.19,0.49 0.33,0.02 0.41,0.24 0.41,0.39 0,0.22 -0.17,0.38 -0.39,0.38 -0.19,0 -0.39,-0.11 -0.39,-0.4 0,-0.65 0.73,-1.08 1.58,-1.08 0.97,0 1.64,0.65 1.64,1.34 0,0.55 -0.45,1.09 -1.22,1.25 0.74,0.26 1,0.78 1,1.21 0,0.55 -0.64,0.96 -1.41,0.96 -0.78,0 -1.37,-0.38 -1.37,-0.93 0,-0.24 0.15,-0.37 0.36,-0.37 0.22,0 0.36,0.16 0.36,0.35 0,0.2 -0.14,0.35 -0.36,0.36 0.25,0.31 0.73,0.39 0.99,0.39 0.31,0 0.75,-0.16 0.75,-0.76 0,-0.29 -0.1,-0.61 -0.28,-0.83 -0.23,-0.26 -0.42,-0.28 -0.77,-0.3 -0.18,-0.01 -0.19,-0.01 -0.23,-0.02 -0.01,0 -0.07,-0.01 -0.07,-0.09 0,-0.1 0.07,-0.1 0.19,-0.1 z"
   style="fill:#ff0000;stroke-width:0"
   id="path2315" />
</g>    </g>
  </g>
  <g
     transform="translate(-10.333195,-86.371799)"
     inkscape:label="Resistor"
     id="g2929"
     inkscape:export-xdpi="600"
     inkscape:export-ydpi="600">
    <g
       id="g2909">
      <path
         inkscape:connector-curvature="0"
         d="m 120,100 h 15.5 l 2,3 3,-6 3,6 3,-6 3,6 3,-6 2,3 H 170"
         style="fill:none;stroke:#000000;stroke-width:1;stroke-linecap:round;stroke-linejoin:round;stroke-dasharray:none"
         inkscape:label="none"
         id="path2907" />
    </g>
    <g
       style="font-style:normal;font-variant:normal;font-weight:normal;font-stretch:normal;letter-spacing:normal;word-spacing:normal;text-anchor:start;fill:none;fill-opacity:1;fill-rule:evenodd;stroke:#000000;stroke-linecap:butt;stroke-linejoin:miter;stroke-miterlimit:10.43299961;stroke-dasharray:none;stroke-dashoffset:0;stroke-opacity:1"
       id="g2915"
       xml:space="preserve"
       stroke-miterlimit="10.433"
       font-style="normal"
       font-variant="normal"
       font-weight="normal"
       font-stretch="normal"
       font-size-adjust="none"
       letter-spacing="normal"
       word-spacing="normal"
       ns0:text=" $R_1$"
       ns0:preamble="C:\\Program Files\\Inkscape\\share\\extensions/textextLib/CircuitSymbolsLatexPreamble.tex"
       transform="matrix(0.739645,0,0,-0.739645,-24.43048,615.66373)">
<path
   inkscape:connector-curvature="0"
   d="m 228.61,710.61 0.09,0.02 0.1,0.03 0.09,0.03 0.1,0.03 0.1,0.03 0.09,0.03 0.1,0.04 0.1,0.04 0.09,0.05 0.09,0.04 0.09,0.05 0.09,0.05 0.09,0.05 0.09,0.06 0.08,0.06 0.08,0.06 0.08,0.06 0.07,0.06 0.08,0.07 0.06,0.07 0.07,0.07 0.06,0.07 0.05,0.08 0.05,0.08 0.05,0.08 0.03,0.08 0.04,0.08 0.03,0.09 0.02,0.09 0.02,0.09 0.01,0.09 v 0.09 c 0,0.85 -0.9,1.49 -2.2,1.49 h -2.84 c -0.2,0 -0.29,0 -0.29,-0.2 0,-0.11 0.09,-0.11 0.28,-0.11 0.01,0 0.21,0 0.38,-0.02 0.17,-0.02 0.26,-0.03 0.26,-0.16 0,-0.04 -0.01,-0.07 -0.04,-0.19 l -1.33,-5.33 c -0.1,-0.39 -0.12,-0.47 -0.91,-0.47 -0.18,0 -0.27,0 -0.27,-0.2 0,-0.11 0.12,-0.11 0.14,-0.11 0.28,0 0.98,0.04 1.26,0.04 0.28,0 0.98,-0.04 1.26,-0.04 0.08,0 0.2,0 0.2,0.2 0,0.11 -0.09,0.11 -0.28,0.11 -0.37,0 -0.65,0 -0.65,0.18 0,0.06 0.02,0.11 0.03,0.17 l 0.66,2.63 h 1.19 l -0.01,0.22 h -1.12 l 0.65,2.59 c 0.06,0.24 0.09,0.34 0.28,0.37 0.09,0.01 0.41,0.01 0.61,0.01 0.71,0 1.81,0 1.81,-0.98 0,-0.34 -0.16,-1.02 -0.55,-1.41 -0.25,-0.26 -0.78,-0.58 -1.68,-0.58 l 0.01,-0.22 c 0.91,0 1.09,-0.55 1.09,-0.9 0,-0.15 -0.08,-0.46 -0.14,-0.69 -0.07,-0.27 -0.16,-0.64 -0.16,-0.84 0,-1.07 1.19,-1.07 1.32,-1.07 0.85,0 1.2,1 1.2,1.14 0,0.12 -0.11,0.12 -0.12,0.12 -0.09,0 -0.11,-0.07 -0.13,-0.14 -0.25,-0.74 -0.68,-0.91 -0.91,-0.91 -0.32,0 -0.4,0.22 -0.4,0.61 0,0.31 0.06,0.82 0.11,1.13 0.01,0.14 0.03,0.33 0.03,0.47 0,0.77 -0.66,1.07 -0.93,1.17 z"
   style="fill:#000000;stroke-width:0"
   id="path2911" />
<path
   inkscape:connector-curvature="0"
   d="m 233.34,710.16 v 0.01 0.01 0.01 0.01 0 0.01 0.01 0.01 0 0.01 0.01 0 0.01 0 l -0.01,0.01 v 0 0.01 0 0.01 0.01 l -0.01,0.01 v 0 0.01 l -0.01,0.01 v 0 l -0.01,0.01 v 0 h -0.01 l -0.01,0.01 h -0.01 -0.01 v 0 h -0.01 -0.01 v 0 l -0.01,0.01 v 0 h -0.01 v 0 h -0.01 -0.01 -0.01 v 0 h -0.01 -0.01 -0.01 v 0 h -0.01 -0.01 -0.01 c -0.45,-0.44 -1.08,-0.45 -1.37,-0.45 v -0.25 c 0.17,0 0.63,0 1.01,0.2 v -3.55 c 0,-0.23 0,-0.32 -0.7,-0.32 h -0.26 v -0.25 c 0.12,0.01 0.98,0.03 1.24,0.03 0.22,0 1.1,-0.02 1.25,-0.03 v 0.25 h -0.26 c -0.7,0 -0.7,0.09 -0.7,0.32 z"
   style="fill:#000000;stroke-width:0"
   id="path2913" />
</g>    <g
       inkscape:label="name"
       id="g2927">
      <path
         inkscape:connector-curvature="0"
         d="M 165,95 H 155"
         style="fill:none;stroke:#ff0000;stroke-width:1;stroke-linecap:round;stroke-linejoin:round;stroke-dasharray:none;marker-end:url(#arrowCurrentEnd)"
         inkscape:label="none"
         id="path2917" />
      <g
         style="font-style:normal;font-variant:normal;font-weight:normal;font-stretch:normal;letter-spacing:normal;word-spacing:normal;text-anchor:start;fill:none;fill-opacity:1;fill-rule:evenodd;stroke:#000000;stroke-linecap:butt;stroke-linejoin:miter;stroke-miterlimit:10.43299961;stroke-dasharray:none;stroke-dashoffset:0;stroke-opacity:1"
         id="g2925"
         xml:space="preserve"
         stroke-miterlimit="10.433"
         font-style="normal"
         font-variant="normal"
         font-weight="normal"
         font-stretch="normal"
         font-size-adjust="none"
         letter-spacing="normal"
         word-spacing="normal"
         ns0:text=" $i_4$"
         ns0:preamble="C:\\Program Files\\Inkscape\\share\\extensions/textextLib/CircuitSymbolsLatexPreamble.tex"
         transform="matrix(0.739645,0,0,-0.739645,-8.002965,614.3304)">
<path
   inkscape:connector-curvature="0"
   d="m 226.26,713.44 v 0.02 0.02 0.02 0.02 l -0.01,0.01 v 0.02 l -0.01,0.02 v 0.01 l -0.01,0.02 -0.01,0.01 v 0.02 l -0.01,0.01 -0.01,0.02 -0.01,0.01 -0.01,0.01 -0.01,0.02 -0.02,0.01 -0.01,0.01 -0.01,0.01 -0.02,0.01 -0.01,0.01 -0.02,0.01 -0.01,0.01 h -0.02 l -0.02,0.01 -0.02,0.01 H 226 225.98 l -0.02,0.01 h -0.02 -0.02 -0.02 c -0.27,0 -0.54,-0.26 -0.54,-0.52 0,-0.19 0.14,-0.36 0.38,-0.36 0.22,0 0.52,0.23 0.52,0.52 z"
   style="fill:#ff0000;stroke-width:0"
   id="path2919" />
<path
   inkscape:connector-curvature="0"
   d="m 225.51,709.71 0.01,0.02 0.01,0.03 0.01,0.02 0.01,0.02 v 0.03 l 0.01,0.02 0.01,0.01 0.01,0.02 v 0.02 l 0.01,0.02 0.01,0.01 v 0.02 l 0.01,0.01 v 0.02 l 0.01,0.02 0.01,0.03 0.01,0.03 0.01,0.02 v 0.01 l 0.01,0.02 0.01,0.01 v 0.02 l 0.01,0.02 0.01,0.02 v 0.01 l 0.01,0.03 0.01,0.02 0.01,0.02 0.01,0.02 c 0.07,0.2 0.12,0.34 0.12,0.53 0,0.45 -0.31,0.82 -0.81,0.82 -0.94,0 -1.32,-1.45 -1.32,-1.53 0,-0.1 0.1,-0.1 0.12,-0.1 0.1,0 0.11,0.02 0.16,0.17 0.27,0.94 0.67,1.24 1.01,1.24 0.08,0 0.25,0 0.25,-0.32 0,-0.21 -0.07,-0.42 -0.11,-0.52 -0.08,-0.26 -0.53,-1.41 -0.69,-1.84 -0.1,-0.25 -0.23,-0.58 -0.23,-0.79 0,-0.47 0.34,-0.81 0.82,-0.81 0.94,0 1.3,1.44 1.3,1.53 0,0.1 -0.09,0.1 -0.12,0.1 -0.1,0 -0.1,-0.04 -0.14,-0.18 -0.19,-0.63 -0.51,-1.24 -1.02,-1.24 -0.17,0 -0.24,0.1 -0.24,0.33 0,0.25 0.06,0.39 0.29,0.99 z"
   style="fill:#ff0000;stroke-width:0"
   id="path2921" />
<path
   inkscape:connector-curvature="0"
   d="m 230.56,706.88 v 0.25 h -0.77 v 3.1 c 0,0.15 0,0.2 -0.16,0.2 -0.08,0 -0.11,0 -0.18,-0.1 l -2.31,-3.2 v -0.25 h 2.05 l 0.05,0.25 h -1.84 l 1.84,2.55 v -2.55 l -0.05,-0.25 v -0.57 c 0,-0.23 0,-0.32 -0.56,-0.32 h -0.19 v -0.25 c 0.35,0.02 0.79,0.03 1.05,0.03 0.25,0 0.7,-0.01 1.05,-0.03 v 0.25 h -0.19 c -0.56,0 -0.56,0.09 -0.56,0.32 v 0.57 z"
   style="fill:#ff0000;stroke-width:0"
   id="path2923" />
</g>    </g>
  </g>
  <g
     id="g3223"
     transform="rotate(-180,89.728368,75.681062)"
     inkscape:label="GND"
     inkscape:export-xdpi="600"
     inkscape:export-ydpi="600">
    <g
       id="g3215"
       inkscape:label="GND">
      <circle
         id="path3213"
         inkscape:label="circle"
         style="fill:#000000;stroke:#000000;stroke-width:0.69999999;stroke-linecap:round;stroke-linejoin:round;stroke-dasharray:none"
         cx="120"
         cy="100"
         r="1" />
    </g>
    <g
       transform="matrix(-0.739645,0,0,0.739645,289.71154,-431.45466)"
       ns0:preamble="C:\\Program Files\\Inkscape\\share\\extensions/textextLib/CircuitSymbolsLatexPreamble.tex"
       ns0:text=" $V_A$"
       word-spacing="normal"
       letter-spacing="normal"
       font-size-adjust="none"
       font-stretch="normal"
       font-weight="normal"
       font-variant="normal"
       font-style="normal"
       stroke-miterlimit="10.433"
       xml:space="preserve"
       id="g3221"
       style="font-style:normal;font-variant:normal;font-weight:normal;font-stretch:normal;letter-spacing:normal;word-spacing:normal;text-anchor:start;fill:none;fill-opacity:1;fill-rule:evenodd;stroke:#000000;stroke-linecap:butt;stroke-linejoin:miter;stroke-miterlimit:10.43299961;stroke-dasharray:none;stroke-dashoffset:0;stroke-opacity:1">
<path
   id="path3217"
   style="fill:#000000;stroke-width:0"
   d="m 229.7,712.89 0.04,0.07 0.05,0.06 0.04,0.07 0.04,0.05 0.05,0.06 0.04,0.05 0.05,0.05 0.04,0.04 0.04,0.04 0.04,0.04 0.04,0.03 0.05,0.03 0.04,0.03 0.04,0.03 0.04,0.02 0.04,0.02 0.04,0.02 0.04,0.02 0.04,0.01 0.03,0.02 0.04,0.01 0.04,0.01 0.04,0.01 h 0.03 l 0.04,0.01 h 0.04 l 0.07,0.01 0.07,0.01 h 0.07 c 0.12,0.01 0.13,0.18 0.13,0.19 0,0.08 -0.05,0.12 -0.13,0.12 -0.26,0 -0.55,-0.03 -0.82,-0.03 -0.33,0 -0.66,0.03 -0.98,0.03 -0.06,0 -0.19,0 -0.19,-0.19 0,-0.11 0.09,-0.12 0.16,-0.12 0.26,-0.02 0.46,-0.12 0.46,-0.33 0,-0.15 -0.15,-0.36 -0.15,-0.37 l -3.07,-4.85 -0.67,5.25 c 0,0.17 0.22,0.3 0.68,0.3 0.14,0 0.25,0 0.25,0.2 0,0.09 -0.08,0.11 -0.14,0.11 -0.4,0 -0.82,-0.03 -1.23,-0.03 -0.18,0 -0.37,0.01 -0.55,0.01 -0.18,0 -0.37,0.02 -0.54,0.02 -0.07,0 -0.19,0 -0.19,-0.19 0,-0.12 0.09,-0.12 0.25,-0.12 0.56,0 0.57,-0.09 0.6,-0.34 l 0.79,-6.13 c 0.03,-0.19 0.07,-0.22 0.19,-0.22 0.17,0 0.2,0.05 0.28,0.18 z"
   inkscape:connector-curvature="0" />
<path
   id="path3219"
   style="fill:#000000;stroke-width:0"
   d="m 230.68,706.58 -0.02,-0.04 -0.02,-0.03 -0.02,-0.04 -0.03,-0.03 -0.02,-0.03 -0.02,-0.03 -0.03,-0.02 -0.02,-0.03 -0.02,-0.03 -0.03,-0.02 -0.02,-0.02 -0.02,-0.03 -0.03,-0.02 -0.02,-0.02 -0.03,-0.02 -0.02,-0.02 -0.03,-0.01 -0.03,-0.02 -0.02,-0.02 -0.03,-0.01 -0.03,-0.01 -0.03,-0.02 -0.03,-0.01 -0.03,-0.01 -0.03,-0.01 -0.03,-0.01 h -0.04 l -0.03,-0.01 -0.04,-0.01 h -0.03 l -0.04,-0.01 h -0.04 c -0.07,-0.01 -0.16,-0.01 -0.16,-0.15 0,-0.07 0.07,-0.1 0.1,-0.1 0.18,0 0.41,0.03 0.6,0.03 0.23,0 0.51,-0.03 0.72,-0.03 0.04,0 0.14,0 0.14,0.15 0,0.09 -0.09,0.1 -0.12,0.1 -0.05,0.01 -0.31,0.02 -0.31,0.21 0,0.08 0.08,0.2 0.11,0.26 l 0.56,0.87 h 2 l -0.04,0.25 h -1.79 l 1.47,2.27 0.32,-2.27 0.04,-0.25 0.17,-1.16 c -0.03,-0.07 -0.07,-0.18 -0.48,-0.18 -0.09,0 -0.19,0 -0.19,-0.15 0,-0.03 0.02,-0.1 0.11,-0.1 0.21,0 0.7,0.03 0.91,0.03 0.12,0 0.28,-0.01 0.41,-0.01 0.12,0 0.27,-0.02 0.4,-0.02 0.09,0 0.14,0.06 0.14,0.15 0,0.1 -0.09,0.1 -0.2,0.1 -0.4,0 -0.42,0.06 -0.44,0.22 l -0.61,4.29 c -0.03,0.15 -0.04,0.2 -0.17,0.2 -0.14,0 -0.18,-0.06 -0.24,-0.16 z"
   inkscape:connector-curvature="0" />
</g>  </g>
  <g
     id="g3835"
     transform="rotate(-180,128.4524,83.880963)"
     inkscape:label="GND"
     inkscape:export-xdpi="600"
     inkscape:export-ydpi="600">
    <g
       id="g3827"
       inkscape:label="GND"
       transform="translate(-13.397473,-2.9232604)">
      <circle
         id="path3825"
         inkscape:label="circle"
         style="fill:#000000;stroke:#000000;stroke-width:0.69999999;stroke-linecap:round;stroke-linejoin:round;stroke-dasharray:none"
         cx="120"
         cy="100"
         r="1" />
    </g>
    <g
       transform="matrix(-0.739645,0,0,0.739645,283.6397,-427.72214)"
       ns0:preamble="C:\\Program Files\\Inkscape\\share\\extensions/textextLib/CircuitSymbolsLatexPreamble.tex"
       ns0:text=" $V_B$"
       word-spacing="normal"
       letter-spacing="normal"
       font-size-adjust="none"
       font-stretch="normal"
       font-weight="normal"
       font-variant="normal"
       font-style="normal"
       stroke-miterlimit="10.433"
       xml:space="preserve"
       id="g3833"
       style="font-style:normal;font-variant:normal;font-weight:normal;font-stretch:normal;letter-spacing:normal;word-spacing:normal;text-anchor:start;fill:none;fill-opacity:1;fill-rule:evenodd;stroke:#000000;stroke-linecap:butt;stroke-linejoin:miter;stroke-miterlimit:10.43299961;stroke-dasharray:none;stroke-dashoffset:0;stroke-opacity:1">
<path
   id="path3829"
   style="fill:#000000;stroke-width:0"
   d="m 229.7,712.89 0.04,0.07 0.05,0.06 0.04,0.07 0.04,0.05 0.05,0.06 0.04,0.05 0.05,0.05 0.04,0.04 0.04,0.04 0.04,0.04 0.04,0.03 0.05,0.03 0.04,0.03 0.04,0.03 0.04,0.02 0.04,0.02 0.04,0.02 0.04,0.02 0.04,0.01 0.03,0.02 0.04,0.01 0.04,0.01 0.04,0.01 h 0.03 l 0.04,0.01 h 0.04 l 0.07,0.01 0.07,0.01 h 0.07 c 0.12,0.01 0.13,0.18 0.13,0.19 0,0.08 -0.05,0.12 -0.13,0.12 -0.26,0 -0.55,-0.03 -0.82,-0.03 -0.33,0 -0.66,0.03 -0.98,0.03 -0.06,0 -0.19,0 -0.19,-0.19 0,-0.11 0.09,-0.12 0.16,-0.12 0.26,-0.02 0.46,-0.12 0.46,-0.33 0,-0.15 -0.15,-0.36 -0.15,-0.37 l -3.07,-4.85 -0.67,5.25 c 0,0.17 0.22,0.3 0.68,0.3 0.14,0 0.25,0 0.25,0.2 0,0.09 -0.08,0.11 -0.14,0.11 -0.4,0 -0.82,-0.03 -1.23,-0.03 -0.18,0 -0.37,0.01 -0.55,0.01 -0.18,0 -0.37,0.02 -0.54,0.02 -0.07,0 -0.19,0 -0.19,-0.19 0,-0.12 0.09,-0.12 0.25,-0.12 0.56,0 0.57,-0.09 0.6,-0.34 l 0.79,-6.13 c 0.03,-0.19 0.07,-0.22 0.19,-0.22 0.17,0 0.2,0.05 0.28,0.18 z"
   inkscape:connector-curvature="0" />
<path
   id="path3831"
   style="fill:#000000;stroke-width:0"
   d="m 230.57,706.28 v -0.02 l -0.01,-0.02 v -0.02 l -0.01,-0.02 -0.01,-0.01 v -0.02 l -0.01,-0.02 v -0.01 l -0.01,-0.02 -0.01,-0.01 -0.01,-0.01 -0.01,-0.01 -0.01,-0.01 -0.01,-0.01 -0.01,-0.01 -0.02,-0.01 -0.01,-0.01 -0.02,-0.01 h -0.02 l -0.02,-0.01 h -0.02 l -0.01,-0.01 h -0.01 -0.02 -0.01 -0.01 L 230.27,706 h -0.01 -0.02 -0.01 -0.02 -0.02 -0.02 l -0.02,-0.01 h -0.01 -0.02 -0.02 -0.03 -0.02 -0.02 -0.02 -0.03 -0.02 c -0.12,0 -0.21,0 -0.21,-0.15 0,-0.1 0.08,-0.1 0.21,-0.1 h 2.7 c 1.18,0 2.08,0.8 2.08,1.49 0,0.49 -0.45,0.92 -1.2,0.99 0.85,0.16 1.56,0.69 1.56,1.28 0,0.53 -0.54,0.99 -1.45,0.99 l -0.11,-0.25 c 0.71,0 0.87,-0.47 0.87,-0.73 0,-0.56 -0.64,-1.2 -1.57,-1.2 h -1.15 l -0.05,-0.2 h 1.49 c 0.65,0 0.9,-0.43 0.9,-0.83 0,-0.69 -0.7,-1.29 -1.55,-1.29 h -1.12 c -0.22,0 -0.23,0.01 -0.23,0.07 0,0.01 0,0.04 0.03,0.15 l 0.48,1.9 0.05,0.2 0.43,1.69 c 0.05,0.22 0.06,0.24 0.35,0.24 h 1.07 l 0.11,0.25 h -2.55 c -0.13,0 -0.22,0 -0.22,-0.15 0,-0.1 0.08,-0.1 0.22,-0.1 0.01,0 0.14,0 0.27,-0.01 0.15,-0.02 0.16,-0.03 0.16,-0.1 0,-0.02 0,-0.05 -0.03,-0.15 z"
   inkscape:connector-curvature="0" />
</g>  </g>
  <g
     inkscape:label="GND"
     transform="rotate(-180,131.81176,53.198404)"
     id="g4153"
     inkscape:export-xdpi="600"
     inkscape:export-ydpi="600">
    <g
       transform="translate(-6.6427518,-14.238199)"
       inkscape:label="GND"
       id="g4145">
      <circle
         r="1"
         cy="70"
         cx="120"
         style="fill:#000000;stroke:#000000;stroke-width:0.69999999;stroke-linecap:round;stroke-linejoin:round;stroke-dasharray:none"
         inkscape:label="circle"
         id="path4143" />
    </g>
    <g
       style="font-style:normal;font-variant:normal;font-weight:normal;font-stretch:normal;letter-spacing:normal;word-spacing:normal;text-anchor:start;fill:none;fill-opacity:1;fill-rule:evenodd;stroke:#000000;stroke-linecap:butt;stroke-linejoin:miter;stroke-miterlimit:10.43299961;stroke-dasharray:none;stroke-dashoffset:0;stroke-opacity:1"
       id="g4151"
       xml:space="preserve"
       stroke-miterlimit="10.433"
       font-style="normal"
       font-variant="normal"
       font-weight="normal"
       font-stretch="normal"
       font-size-adjust="none"
       letter-spacing="normal"
       word-spacing="normal"
       ns0:text=" $V_B$"
       ns0:preamble="C:\\Program Files\\Inkscape\\share\\extensions/textextLib/CircuitSymbolsLatexPreamble.tex"
       transform="matrix(-0.739645,0,0,0.739645,289.91545,-463.65963)">
<path
   inkscape:connector-curvature="0"
   d="m 229.7,712.89 0.04,0.07 0.05,0.06 0.04,0.07 0.04,0.05 0.05,0.06 0.04,0.05 0.05,0.05 0.04,0.04 0.04,0.04 0.04,0.04 0.04,0.03 0.05,0.03 0.04,0.03 0.04,0.03 0.04,0.02 0.04,0.02 0.04,0.02 0.04,0.02 0.04,0.01 0.03,0.02 0.04,0.01 0.04,0.01 0.04,0.01 h 0.03 l 0.04,0.01 h 0.04 l 0.07,0.01 0.07,0.01 h 0.07 c 0.12,0.01 0.13,0.18 0.13,0.19 0,0.08 -0.05,0.12 -0.13,0.12 -0.26,0 -0.55,-0.03 -0.82,-0.03 -0.33,0 -0.66,0.03 -0.98,0.03 -0.06,0 -0.19,0 -0.19,-0.19 0,-0.11 0.09,-0.12 0.16,-0.12 0.26,-0.02 0.46,-0.12 0.46,-0.33 0,-0.15 -0.15,-0.36 -0.15,-0.37 l -3.07,-4.85 -0.67,5.25 c 0,0.17 0.22,0.3 0.68,0.3 0.14,0 0.25,0 0.25,0.2 0,0.09 -0.08,0.11 -0.14,0.11 -0.4,0 -0.82,-0.03 -1.23,-0.03 -0.18,0 -0.37,0.01 -0.55,0.01 -0.18,0 -0.37,0.02 -0.54,0.02 -0.07,0 -0.19,0 -0.19,-0.19 0,-0.12 0.09,-0.12 0.25,-0.12 0.56,0 0.57,-0.09 0.6,-0.34 l 0.79,-6.13 c 0.03,-0.19 0.07,-0.22 0.19,-0.22 0.17,0 0.2,0.05 0.28,0.18 z"
   style="fill:#000000;stroke-width:0"
   id="path4147" />
<path
   inkscape:connector-curvature="0"
   d="m 230.57,706.28 v -0.02 l -0.01,-0.02 v -0.02 l -0.01,-0.02 -0.01,-0.01 v -0.02 l -0.01,-0.02 v -0.01 l -0.01,-0.02 -0.01,-0.01 -0.01,-0.01 -0.01,-0.01 -0.01,-0.01 -0.01,-0.01 -0.01,-0.01 -0.02,-0.01 -0.01,-0.01 -0.02,-0.01 h -0.02 l -0.02,-0.01 h -0.02 l -0.01,-0.01 h -0.01 -0.02 -0.01 -0.01 L 230.27,706 h -0.01 -0.02 -0.01 -0.02 -0.02 -0.02 l -0.02,-0.01 h -0.01 -0.02 -0.02 -0.03 -0.02 -0.02 -0.02 -0.03 -0.02 c -0.12,0 -0.21,0 -0.21,-0.15 0,-0.1 0.08,-0.1 0.21,-0.1 h 2.7 c 1.18,0 2.08,0.8 2.08,1.49 0,0.49 -0.45,0.92 -1.2,0.99 0.85,0.16 1.56,0.69 1.56,1.28 0,0.53 -0.54,0.99 -1.45,0.99 l -0.11,-0.25 c 0.71,0 0.87,-0.47 0.87,-0.73 0,-0.56 -0.64,-1.2 -1.57,-1.2 h -1.15 l -0.05,-0.2 h 1.49 c 0.65,0 0.9,-0.43 0.9,-0.83 0,-0.69 -0.7,-1.29 -1.55,-1.29 h -1.12 c -0.22,0 -0.23,0.01 -0.23,0.07 0,0.01 0,0.04 0.03,0.15 l 0.48,1.9 0.05,0.2 0.43,1.69 c 0.05,0.22 0.06,0.24 0.35,0.24 h 1.07 l 0.11,0.25 h -2.55 c -0.13,0 -0.22,0 -0.22,-0.15 0,-0.1 0.08,-0.1 0.22,-0.1 0.01,0 0.14,0 0.27,-0.01 0.15,-0.02 0.16,-0.03 0.16,-0.1 0,-0.02 0,-0.05 -0.03,-0.15 z"
   style="fill:#000000;stroke-width:0"
   id="path4149" />
</g>  </g>
  <g
     transform="translate(70.275327,25.145411)"
     inkscape:label="Resistor"
     id="g4849"
     inkscape:export-xdpi="600"
     inkscape:export-ydpi="600">
    <g
       id="g4829">
      <path
         inkscape:connector-curvature="0"
         d="m 80,80 h 15.5 l 2,3 3,-6 3,6 3,-6 3,6 3,-6 2,3 H 130"
         style="fill:none;stroke:#000000;stroke-width:1;stroke-linecap:round;stroke-linejoin:round;stroke-dasharray:none"
         inkscape:label="none"
         id="path4827" />
    </g>
    <g
       style="font-style:normal;font-variant:normal;font-weight:normal;font-stretch:normal;letter-spacing:normal;word-spacing:normal;text-anchor:start;fill:none;fill-opacity:1;fill-rule:evenodd;stroke:#000000;stroke-linecap:butt;stroke-linejoin:miter;stroke-miterlimit:10.43299961;stroke-dasharray:none;stroke-dashoffset:0;stroke-opacity:1"
       id="g4835"
       xml:space="preserve"
       stroke-miterlimit="10.433"
       font-style="normal"
       font-variant="normal"
       font-weight="normal"
       font-stretch="normal"
       font-size-adjust="none"
       letter-spacing="normal"
       word-spacing="normal"
       ns0:text=" $R_B$"
       ns0:preamble="C:\\Program Files\\Inkscape\\share\\extensions/textextLib/CircuitSymbolsLatexPreamble.tex"
       transform="matrix(0.739645,0,0,-0.739645,-65.373528,595.66373)">
<path
   inkscape:connector-curvature="0"
   d="m 228.61,710.61 0.09,0.02 0.1,0.03 0.09,0.03 0.1,0.03 0.1,0.03 0.09,0.03 0.1,0.04 0.1,0.04 0.09,0.05 0.09,0.04 0.09,0.05 0.09,0.05 0.09,0.05 0.09,0.06 0.08,0.06 0.08,0.06 0.08,0.06 0.07,0.06 0.08,0.07 0.06,0.07 0.07,0.07 0.06,0.07 0.05,0.08 0.05,0.08 0.05,0.08 0.03,0.08 0.04,0.08 0.03,0.09 0.02,0.09 0.02,0.09 0.01,0.09 v 0.09 c 0,0.85 -0.9,1.49 -2.2,1.49 h -2.84 c -0.2,0 -0.29,0 -0.29,-0.2 0,-0.11 0.09,-0.11 0.28,-0.11 0.01,0 0.21,0 0.38,-0.02 0.17,-0.02 0.26,-0.03 0.26,-0.16 0,-0.04 -0.01,-0.07 -0.04,-0.19 l -1.33,-5.33 c -0.1,-0.39 -0.12,-0.47 -0.91,-0.47 -0.18,0 -0.27,0 -0.27,-0.2 0,-0.11 0.12,-0.11 0.14,-0.11 0.28,0 0.98,0.04 1.26,0.04 0.28,0 0.98,-0.04 1.26,-0.04 0.08,0 0.2,0 0.2,0.2 0,0.11 -0.09,0.11 -0.28,0.11 -0.37,0 -0.65,0 -0.65,0.18 0,0.06 0.02,0.11 0.03,0.17 l 0.66,2.63 h 1.19 l -0.01,0.22 h -1.12 l 0.65,2.59 c 0.06,0.24 0.09,0.34 0.28,0.37 0.09,0.01 0.41,0.01 0.61,0.01 0.71,0 1.81,0 1.81,-0.98 0,-0.34 -0.16,-1.02 -0.55,-1.41 -0.25,-0.26 -0.78,-0.58 -1.68,-0.58 l 0.01,-0.22 c 0.91,0 1.09,-0.55 1.09,-0.9 0,-0.15 -0.08,-0.46 -0.14,-0.69 -0.07,-0.27 -0.16,-0.64 -0.16,-0.84 0,-1.07 1.19,-1.07 1.32,-1.07 0.85,0 1.2,1 1.2,1.14 0,0.12 -0.11,0.12 -0.12,0.12 -0.09,0 -0.11,-0.07 -0.13,-0.14 -0.25,-0.74 -0.68,-0.91 -0.91,-0.91 -0.32,0 -0.4,0.22 -0.4,0.61 0,0.31 0.06,0.82 0.11,1.13 0.01,0.14 0.03,0.33 0.03,0.47 0,0.77 -0.66,1.07 -0.93,1.17 z"
   style="fill:#000000;stroke-width:0"
   id="path4831" />
<path
   inkscape:connector-curvature="0"
   d="m 232.32,706.28 v -0.02 l -0.01,-0.02 v -0.02 l -0.01,-0.02 v -0.01 l -0.01,-0.02 v -0.02 l -0.01,-0.01 -0.01,-0.02 -0.01,-0.01 -0.01,-0.01 v -0.01 l -0.02,-0.01 -0.01,-0.01 -0.01,-0.01 -0.01,-0.01 -0.02,-0.01 -0.02,-0.01 h -0.01 l -0.02,-0.01 h -0.03 l -0.01,-0.01 h -0.01 -0.01 -0.02 -0.01 L 232.02,706 h -0.01 -0.02 -0.01 -0.02 -0.02 -0.01 l -0.02,-0.01 h -0.02 -0.02 -0.02 -0.02 -0.02 -0.03 -0.02 -0.03 -0.02 c -0.12,0 -0.21,0 -0.21,-0.15 0,-0.1 0.08,-0.1 0.21,-0.1 h 2.71 c 1.17,0 2.07,0.8 2.07,1.49 0,0.49 -0.45,0.92 -1.19,0.99 0.84,0.16 1.55,0.69 1.55,1.28 0,0.53 -0.54,0.99 -1.45,0.99 l -0.11,-0.25 c 0.71,0 0.87,-0.47 0.87,-0.73 0,-0.56 -0.63,-1.2 -1.57,-1.2 h -1.15 l -0.04,-0.2 h 1.48 c 0.66,0 0.91,-0.43 0.91,-0.83 0,-0.69 -0.71,-1.29 -1.56,-1.29 h -1.12 c -0.22,0 -0.23,0.01 -0.23,0.07 0,0.01 0,0.04 0.03,0.15 l 0.49,1.9 0.04,0.2 0.43,1.69 c 0.06,0.22 0.06,0.24 0.36,0.24 h 1.06 l 0.11,0.25 h -2.54 c -0.14,0 -0.23,0 -0.23,-0.15 0,-0.1 0.09,-0.1 0.23,-0.1 0,0 0.14,0 0.26,-0.01 0.15,-0.02 0.16,-0.03 0.16,-0.1 0,-0.02 0,-0.05 -0.02,-0.15 z"
   style="fill:#000000;stroke-width:0"
   id="path4833" />
</g>    <g
       inkscape:label="name"
       id="g4847">
      <path
         inkscape:connector-curvature="0"
         d="M 125,75 H 115"
         style="fill:none;stroke:#ff0000;stroke-width:1;stroke-linecap:round;stroke-linejoin:round;stroke-dasharray:none;marker-end:url(#arrowCurrentEnd)"
         inkscape:label="none"
         id="path4837" />
      <g
         style="font-style:normal;font-variant:normal;font-weight:normal;font-stretch:normal;letter-spacing:normal;word-spacing:normal;text-anchor:start;fill:none;fill-opacity:1;fill-rule:evenodd;stroke:#000000;stroke-linecap:butt;stroke-linejoin:miter;stroke-miterlimit:10.43299961;stroke-dasharray:none;stroke-dashoffset:0;stroke-opacity:1"
         id="g4845"
         xml:space="preserve"
         stroke-miterlimit="10.433"
         font-style="normal"
         font-variant="normal"
         font-weight="normal"
         font-stretch="normal"
         font-size-adjust="none"
         letter-spacing="normal"
         word-spacing="normal"
         ns0:text=" $i_B$"
         ns0:preamble="C:\\Program Files\\Inkscape\\share\\extensions/textextLib/CircuitSymbolsLatexPreamble.tex"
         transform="matrix(0.739645,0,0,-0.739645,-48.801782,594.3304)">
<path
   inkscape:connector-curvature="0"
   d="m 226.26,713.44 v 0.02 0.02 0.02 0.02 l -0.01,0.01 v 0.02 l -0.01,0.02 v 0.01 l -0.01,0.02 -0.01,0.01 v 0.02 l -0.01,0.01 -0.01,0.02 -0.01,0.01 -0.01,0.01 -0.01,0.02 -0.02,0.01 -0.01,0.01 -0.01,0.01 -0.02,0.01 -0.01,0.01 -0.02,0.01 -0.01,0.01 h -0.02 l -0.02,0.01 -0.02,0.01 H 226 225.98 l -0.02,0.01 h -0.02 -0.02 -0.02 c -0.27,0 -0.54,-0.26 -0.54,-0.52 0,-0.19 0.14,-0.36 0.38,-0.36 0.22,0 0.52,0.23 0.52,0.52 z"
   style="fill:#ff0000;stroke-width:0"
   id="path4839" />
<path
   inkscape:connector-curvature="0"
   d="m 225.51,709.71 0.01,0.02 0.01,0.03 0.01,0.02 0.01,0.02 v 0.03 l 0.01,0.02 0.01,0.01 0.01,0.02 v 0.02 l 0.01,0.02 0.01,0.01 v 0.02 l 0.01,0.01 v 0.02 l 0.01,0.02 0.01,0.03 0.01,0.03 0.01,0.02 v 0.01 l 0.01,0.02 0.01,0.01 v 0.02 l 0.01,0.02 0.01,0.02 v 0.01 l 0.01,0.03 0.01,0.02 0.01,0.02 0.01,0.02 c 0.07,0.2 0.12,0.34 0.12,0.53 0,0.45 -0.31,0.82 -0.81,0.82 -0.94,0 -1.32,-1.45 -1.32,-1.53 0,-0.1 0.1,-0.1 0.12,-0.1 0.1,0 0.11,0.02 0.16,0.17 0.27,0.94 0.67,1.24 1.01,1.24 0.08,0 0.25,0 0.25,-0.32 0,-0.21 -0.07,-0.42 -0.11,-0.52 -0.08,-0.26 -0.53,-1.41 -0.69,-1.84 -0.1,-0.25 -0.23,-0.58 -0.23,-0.79 0,-0.47 0.34,-0.81 0.82,-0.81 0.94,0 1.3,1.44 1.3,1.53 0,0.1 -0.09,0.1 -0.12,0.1 -0.1,0 -0.1,-0.04 -0.14,-0.18 -0.19,-0.63 -0.51,-1.24 -1.02,-1.24 -0.17,0 -0.24,0.1 -0.24,0.33 0,0.25 0.06,0.39 0.29,0.99 z"
   style="fill:#ff0000;stroke-width:0"
   id="path4841" />
<path
   inkscape:connector-curvature="0"
   d="m 228.19,706.28 v -0.02 l -0.01,-0.02 v -0.02 l -0.01,-0.02 -0.01,-0.01 v -0.02 l -0.01,-0.02 v -0.01 l -0.01,-0.02 -0.01,-0.01 -0.01,-0.01 -0.01,-0.01 -0.01,-0.01 -0.01,-0.01 -0.01,-0.01 -0.02,-0.01 -0.01,-0.01 -0.02,-0.01 h -0.02 l -0.02,-0.01 h -0.02 l -0.01,-0.01 h -0.01 -0.02 -0.01 -0.01 L 227.89,706 h -0.01 -0.02 -0.01 -0.02 -0.02 -0.02 l -0.02,-0.01 h -0.01 -0.02 -0.02 -0.03 -0.02 -0.02 -0.02 -0.03 -0.02 c -0.12,0 -0.21,0 -0.21,-0.15 0,-0.1 0.08,-0.1 0.21,-0.1 h 2.7 c 1.18,0 2.08,0.8 2.08,1.49 0,0.49 -0.46,0.92 -1.2,0.99 0.85,0.16 1.56,0.69 1.56,1.28 0,0.53 -0.54,0.99 -1.45,0.99 l -0.11,-0.25 c 0.71,0 0.87,-0.47 0.87,-0.73 0,-0.56 -0.63,-1.2 -1.57,-1.2 h -1.15 l -0.05,-0.2 h 1.48 c 0.66,0 0.91,-0.43 0.91,-0.83 0,-0.69 -0.7,-1.29 -1.55,-1.29 h -1.12 c -0.22,0 -0.23,0.01 -0.23,0.07 0,0.01 0,0.04 0.03,0.15 l 0.48,1.9 0.05,0.2 0.43,1.69 c 0.05,0.22 0.06,0.24 0.35,0.24 h 1.07 l 0.11,0.25 h -2.55 c -0.13,0 -0.22,0 -0.22,-0.15 0,-0.1 0.08,-0.1 0.22,-0.1 0.01,0 0.14,0 0.27,-0.01 0.15,-0.02 0.16,-0.03 0.16,-0.1 0,-0.02 0,-0.05 -0.03,-0.15 z"
   style="fill:#ff0000;stroke-width:0"
   id="path4843" />
</g>    </g>
  </g>
  <g
     id="g5215"
     transform="rotate(-90,152.71037,122.43504)"
     inkscape:label="Resistor">
    <g
       id="g5195"
       inkscape:export-xdpi="600"
       inkscape:export-ydpi="600">
      <path
         id="path5193"
         inkscape:label="none"
         style="fill:none;stroke:#000000;stroke-width:1;stroke-linecap:round;stroke-linejoin:round;stroke-dasharray:none"
         d="m 120,120 h 15.5 l 2,3 3,-6 3,6 3,-6 3,6 3,-6 2,3 H 170"
         inkscape:connector-curvature="0" />
    </g>
    <g
       transform="matrix(0,0.739645,0.739645,0,-380.0592,-59.69872)"
       ns0:preamble="C:\\Program Files\\Inkscape\\share\\extensions/textextLib/CircuitSymbolsLatexPreamble.tex"
       ns0:text=" $R_A$"
       word-spacing="normal"
       letter-spacing="normal"
       font-size-adjust="none"
       font-stretch="normal"
       font-weight="normal"
       font-variant="normal"
       font-style="normal"
       stroke-miterlimit="10.433"
       xml:space="preserve"
       id="g5201"
       style="font-style:normal;font-variant:normal;font-weight:normal;font-stretch:normal;letter-spacing:normal;word-spacing:normal;text-anchor:start;fill:none;fill-opacity:1;fill-rule:evenodd;stroke:#000000;stroke-linecap:butt;stroke-linejoin:miter;stroke-miterlimit:10.43299961;stroke-dasharray:none;stroke-dashoffset:0;stroke-opacity:1"
       inkscape:export-xdpi="600"
       inkscape:export-ydpi="600">
<path
   id="path5197"
   style="fill:#000000;stroke-width:0"
   d="m 228.61,710.61 0.09,0.02 0.1,0.03 0.09,0.03 0.1,0.03 0.1,0.03 0.09,0.03 0.1,0.04 0.1,0.04 0.09,0.05 0.09,0.04 0.09,0.05 0.09,0.05 0.09,0.05 0.09,0.06 0.08,0.06 0.08,0.06 0.08,0.06 0.07,0.06 0.08,0.07 0.06,0.07 0.07,0.07 0.06,0.07 0.05,0.08 0.05,0.08 0.05,0.08 0.03,0.08 0.04,0.08 0.03,0.09 0.02,0.09 0.02,0.09 0.01,0.09 v 0.09 c 0,0.85 -0.9,1.49 -2.2,1.49 h -2.84 c -0.2,0 -0.29,0 -0.29,-0.2 0,-0.11 0.09,-0.11 0.28,-0.11 0.01,0 0.21,0 0.38,-0.02 0.17,-0.02 0.26,-0.03 0.26,-0.16 0,-0.04 -0.01,-0.07 -0.04,-0.19 l -1.33,-5.33 c -0.1,-0.39 -0.12,-0.47 -0.91,-0.47 -0.18,0 -0.27,0 -0.27,-0.2 0,-0.11 0.12,-0.11 0.14,-0.11 0.28,0 0.98,0.04 1.26,0.04 0.28,0 0.98,-0.04 1.26,-0.04 0.08,0 0.2,0 0.2,0.2 0,0.11 -0.09,0.11 -0.28,0.11 -0.37,0 -0.65,0 -0.65,0.18 0,0.06 0.02,0.11 0.03,0.17 l 0.66,2.63 h 1.19 l -0.01,0.22 h -1.12 l 0.65,2.59 c 0.06,0.24 0.09,0.34 0.28,0.37 0.09,0.01 0.41,0.01 0.61,0.01 0.71,0 1.81,0 1.81,-0.98 0,-0.34 -0.16,-1.02 -0.55,-1.41 -0.25,-0.26 -0.78,-0.58 -1.68,-0.58 l 0.01,-0.22 c 0.91,0 1.09,-0.55 1.09,-0.9 0,-0.15 -0.08,-0.46 -0.14,-0.69 -0.07,-0.27 -0.16,-0.64 -0.16,-0.84 0,-1.07 1.19,-1.07 1.32,-1.07 0.85,0 1.2,1 1.2,1.14 0,0.12 -0.11,0.12 -0.12,0.12 -0.09,0 -0.11,-0.07 -0.13,-0.14 -0.25,-0.74 -0.68,-0.91 -0.91,-0.91 -0.32,0 -0.4,0.22 -0.4,0.61 0,0.31 0.06,0.82 0.11,1.13 0.01,0.14 0.03,0.33 0.03,0.47 0,0.77 -0.66,1.07 -0.93,1.17 z"
   inkscape:connector-curvature="0" />
<path
   id="path5199"
   style="fill:#000000;stroke-width:0"
   d="m 232.44,706.58 -0.03,-0.04 -0.02,-0.03 -0.02,-0.04 -0.02,-0.03 -0.03,-0.03 -0.02,-0.03 -0.02,-0.02 -0.03,-0.03 -0.02,-0.03 -0.02,-0.02 -0.03,-0.02 -0.02,-0.03 -0.02,-0.02 -0.03,-0.02 -0.02,-0.02 -0.03,-0.02 -0.03,-0.01 -0.02,-0.02 -0.03,-0.02 -0.03,-0.01 -0.03,-0.01 -0.03,-0.02 -0.03,-0.01 -0.03,-0.01 -0.03,-0.01 -0.03,-0.01 h -0.03 l -0.04,-0.01 -0.03,-0.01 h -0.04 l -0.04,-0.01 h -0.03 c -0.07,-0.01 -0.16,-0.01 -0.16,-0.15 0,-0.07 0.06,-0.1 0.09,-0.1 0.19,0 0.42,0.03 0.61,0.03 0.22,0 0.5,-0.03 0.72,-0.03 0.03,0 0.14,0 0.14,0.15 0,0.09 -0.1,0.1 -0.12,0.1 -0.06,0.01 -0.31,0.02 -0.31,0.21 0,0.08 0.07,0.2 0.1,0.26 l 0.56,0.87 h 2 l -0.03,0.25 h -1.8 l 1.47,2.27 0.33,-2.27 0.03,-0.25 0.17,-1.16 c -0.03,-0.07 -0.07,-0.18 -0.48,-0.18 -0.09,0 -0.18,0 -0.18,-0.15 0,-0.03 0.02,-0.1 0.11,-0.1 0.2,0 0.7,0.03 0.9,0.03 0.13,0 0.29,-0.01 0.41,-0.01 0.13,0 0.28,-0.02 0.4,-0.02 0.09,0 0.14,0.06 0.14,0.15 0,0.1 -0.08,0.1 -0.2,0.1 -0.4,0 -0.42,0.06 -0.44,0.22 l -0.61,4.29 c -0.02,0.15 -0.04,0.2 -0.17,0.2 -0.13,0 -0.17,-0.06 -0.24,-0.16 z"
   inkscape:connector-curvature="0" />
</g>    <g
       id="g5213"
       inkscape:label="name"
       inkscape:export-xdpi="600"
       inkscape:export-ydpi="600">
      <path
         id="path5203"
         inkscape:label="none"
         style="fill:none;stroke:#ff0000;stroke-width:1;stroke-linecap:round;stroke-linejoin:round;stroke-dasharray:none;marker-end:url(#arrowCurrentEnd)"
         d="M 165,115 H 155"
         inkscape:connector-curvature="0" />
      <g
         transform="matrix(0,0.739645,0.739645,0,-364.97783,-59.656319)"
         ns0:preamble="C:\\Program Files\\Inkscape\\share\\extensions/textextLib/CircuitSymbolsLatexPreamble.tex"
         ns0:text=" $i_A$"
         word-spacing="normal"
         letter-spacing="normal"
         font-size-adjust="none"
         font-stretch="normal"
         font-weight="normal"
         font-variant="normal"
         font-style="normal"
         stroke-miterlimit="10.433"
         xml:space="preserve"
         id="g5211"
         style="font-style:normal;font-variant:normal;font-weight:normal;font-stretch:normal;letter-spacing:normal;word-spacing:normal;text-anchor:start;fill:none;fill-opacity:1;fill-rule:evenodd;stroke:#000000;stroke-linecap:butt;stroke-linejoin:miter;stroke-miterlimit:10.43299961;stroke-dasharray:none;stroke-dashoffset:0;stroke-opacity:1">
<path
   id="path5205"
   style="fill:#ff0000;stroke-width:0"
   d="m 226.26,713.44 v 0.02 0.02 0.02 0.02 l -0.01,0.01 v 0.02 l -0.01,0.02 v 0.01 l -0.01,0.02 -0.01,0.01 v 0.02 l -0.01,0.01 -0.01,0.02 -0.01,0.01 -0.01,0.01 -0.01,0.02 -0.02,0.01 -0.01,0.01 -0.01,0.01 -0.02,0.01 -0.01,0.01 -0.02,0.01 -0.01,0.01 h -0.02 l -0.02,0.01 -0.02,0.01 H 226 225.98 l -0.02,0.01 h -0.02 -0.02 -0.02 c -0.27,0 -0.54,-0.26 -0.54,-0.52 0,-0.19 0.14,-0.36 0.38,-0.36 0.22,0 0.52,0.23 0.52,0.52 z"
   inkscape:connector-curvature="0" />
<path
   id="path5207"
   style="fill:#ff0000;stroke-width:0"
   d="m 225.51,709.71 0.01,0.02 0.01,0.03 0.01,0.02 0.01,0.02 v 0.03 l 0.01,0.02 0.01,0.01 0.01,0.02 v 0.02 l 0.01,0.02 0.01,0.01 v 0.02 l 0.01,0.01 v 0.02 l 0.01,0.02 0.01,0.03 0.01,0.03 0.01,0.02 v 0.01 l 0.01,0.02 0.01,0.01 v 0.02 l 0.01,0.02 0.01,0.02 v 0.01 l 0.01,0.03 0.01,0.02 0.01,0.02 0.01,0.02 c 0.07,0.2 0.12,0.34 0.12,0.53 0,0.45 -0.31,0.82 -0.81,0.82 -0.94,0 -1.32,-1.45 -1.32,-1.53 0,-0.1 0.1,-0.1 0.12,-0.1 0.1,0 0.11,0.02 0.16,0.17 0.27,0.94 0.67,1.24 1.01,1.24 0.08,0 0.25,0 0.25,-0.32 0,-0.21 -0.07,-0.42 -0.11,-0.52 -0.08,-0.26 -0.53,-1.41 -0.69,-1.84 -0.1,-0.25 -0.23,-0.58 -0.23,-0.79 0,-0.47 0.34,-0.81 0.82,-0.81 0.94,0 1.3,1.44 1.3,1.53 0,0.1 -0.09,0.1 -0.12,0.1 -0.1,0 -0.1,-0.04 -0.14,-0.18 -0.19,-0.63 -0.51,-1.24 -1.02,-1.24 -0.17,0 -0.24,0.1 -0.24,0.33 0,0.25 0.06,0.39 0.29,0.99 z"
   inkscape:connector-curvature="0" />
<path
   id="path5209"
   style="fill:#ff0000;stroke-width:0"
   d="m 228.3,706.58 -0.02,-0.04 -0.02,-0.03 -0.02,-0.04 -0.03,-0.03 -0.02,-0.03 -0.02,-0.03 -0.03,-0.02 -0.02,-0.03 -0.02,-0.03 -0.03,-0.02 -0.02,-0.02 -0.02,-0.03 -0.03,-0.02 -0.02,-0.02 -0.03,-0.02 -0.02,-0.02 -0.03,-0.01 -0.03,-0.02 -0.02,-0.02 -0.03,-0.01 -0.03,-0.01 -0.03,-0.02 -0.03,-0.01 -0.03,-0.01 -0.03,-0.01 -0.03,-0.01 h -0.04 l -0.03,-0.01 -0.04,-0.01 h -0.03 l -0.04,-0.01 h -0.04 c -0.07,-0.01 -0.16,-0.01 -0.16,-0.15 0,-0.07 0.07,-0.1 0.1,-0.1 0.18,0 0.41,0.03 0.6,0.03 0.23,0 0.51,-0.03 0.72,-0.03 0.04,0 0.14,0 0.14,0.15 0,0.09 -0.09,0.1 -0.12,0.1 -0.05,0.01 -0.3,0.02 -0.3,0.21 0,0.08 0.06,0.2 0.1,0.26 l 0.56,0.87 h 2 l -0.04,0.25 h -1.79 l 1.47,2.27 0.32,-2.27 0.04,-0.25 0.17,-1.16 c -0.03,-0.07 -0.07,-0.18 -0.49,-0.18 -0.08,0 -0.18,0 -0.18,-0.15 0,-0.03 0.02,-0.1 0.12,-0.1 0.2,0 0.69,0.03 0.9,0.03 0.12,0 0.28,-0.01 0.41,-0.01 0.13,0 0.27,-0.02 0.4,-0.02 0.09,0 0.14,0.06 0.14,0.15 0,0.1 -0.09,0.1 -0.2,0.1 -0.4,0 -0.42,0.06 -0.44,0.22 l -0.61,4.29 c -0.02,0.15 -0.04,0.2 -0.17,0.2 -0.13,0 -0.18,-0.06 -0.24,-0.16 z"
   inkscape:connector-curvature="0" />
</g>    </g>
  </g>
</svg>
